<?xml version="1.0" encoding="UTF-8"?>
<svg version="1.1" xmlns="http://www.w3.org/2000/svg" width="704" height="624">
<path d="M0 0 C232.32 0 464.64 0 704 0 C704 205.92 704 411.84 704 624 C471.68 624 239.36 624 0 624 C0 418.08 0 212.16 0 0 Z " fill="#FEFEFE" transform="translate(0,0)"/>
<path d="M0 0 C3.22317626 3.07385585 5.52114712 6.63578622 7.9375 10.3515625 C8.41767578 11.08386078 8.89785156 11.81615906 9.39257812 12.57064819 C10.9317655 14.91990636 12.46589715 17.27241924 14 19.625 C15.00098221 21.15385531 16.00228141 22.68250313 17.00390625 24.2109375 C22.41817182 32.47989231 27.79736112 40.77116897 33.15965271 49.07389832 C35.75200618 53.08392894 38.36441972 57.07933184 41.00390625 61.05859375 C47.25961096 70.50063529 53.2568498 79.95912 58.64697266 89.92333984 C61.46532224 95.11491215 64.54480436 100.0306715 67.88671875 104.90625 C70.40122859 108.58738086 72.83070858 112.31835852 75.25 116.0625 C75.94295166 117.13359009 75.94295166 117.13359009 76.64990234 118.22631836 C80.67875312 124.46986307 84.6335084 130.75915657 88.58666992 137.05078125 C92.0556949 142.55356637 95.63381179 147.97048234 99.27709961 153.35888672 C103.04679685 158.97757024 106.52530111 164.7609628 110.01342773 170.55712891 C113.26167352 175.9097161 116.72685583 180.96216505 120.5390625 185.93359375 C122 188 122 188 123 191 C123.66 191 124.32 191 125 191 C119.73593339 172.25176268 119.73593339 172.25176268 113 154 C109.73054527 146.12874851 106.92822606 138.13126548 104.1875 130.0625 C99.52547477 116.42256827 94.69381727 102.86106974 89.4375 89.4375 C87.43271058 84.28044302 85.66426083 79.06713287 83.9375 73.8125 C80.92210747 62.57694115 80.92210747 62.57694115 75 53 C75 52.01 75 51.02 75 50 C75.66 50 76.32 50 77 50 C78.21004675 51.51331661 79.34123831 53.08982964 80.4375 54.6875 C83.59184776 59.13901613 86.88727133 63.35858188 90.4375 67.5 C90.90583252 68.04664307 91.37416504 68.59328613 91.85668945 69.15649414 C92.79181097 70.24738844 93.72711108 71.33812967 94.66259766 72.42871094 C98.17905995 76.56013689 101.57670982 80.79143895 105 85 C106.49943092 86.83379879 107.99943458 88.66712943 109.5 90.5 C111.7299804 93.22381689 113.95835987 95.94880801 116.1796875 98.6796875 C120.23796759 103.66227338 124.34029043 108.60211482 128.5 113.5 C133.40432965 119.27660454 138.22259452 125.11777188 143 131 C144.05588997 132.29695611 145.1118867 133.59382529 146.16796875 134.890625 C163.52984853 156.22100625 163.52984853 156.22100625 165.26490784 159.0958252 C166.85730412 161.21992779 166.85730412 161.21992779 169.42808533 161.49206543 C170.39146317 161.48888306 171.354841 161.48570068 172.34741211 161.48242188 C173.99204689 161.49263367 173.99204689 161.49263367 175.66990662 161.50305176 C177.455588 161.48607239 177.455588 161.48607239 179.27734375 161.46875 C180.51303604 161.47579956 181.74872833 161.48284912 183.02186584 161.4901123 C186.99396434 161.51221777 190.96538915 161.51000775 194.9375 161.5 C224.16739735 161.43114276 248.92055852 163.1468141 273 181 C273.86109375 181.63808594 274.7221875 182.27617187 275.609375 182.93359375 C289.91527197 193.97401424 299.11155884 206.15446206 305.8125 222.8125 C306.21118286 223.78606445 306.21118286 223.78606445 306.61791992 224.77929688 C307.51893039 227.1608423 308.25859914 229.56341438 309 232 C309.50209991 233.59884033 309.50209991 233.59884033 310.01434326 235.22998047 C314.30336822 250.49017265 313.57058421 266.32069855 313.50437045 282.02433944 C313.49033541 286.189268 313.49700041 290.35417546 313.50050354 294.51911926 C313.5031904 301.50459831 313.48985941 308.48990403 313.46655273 315.4753418 C313.43992132 323.51209628 313.43821161 331.54856191 313.4499411 339.58534545 C313.46077651 347.37229053 313.45448887 355.15913275 313.44038582 362.94606972 C313.43467889 366.23555289 313.43466631 369.52495947 313.43945122 372.81444359 C313.44427744 376.69630084 313.43389008 380.57784782 313.41249657 384.45964622 C313.40700556 385.87078811 313.40639105 387.28196029 313.41144943 388.69310379 C313.49901988 416.66145767 302.82519386 442.42589235 283.625 462.75 C271.08429551 474.56159376 256.60686071 482.63972233 240 487 C239.06928608 487.26644713 238.13857215 487.53289426 237.17965478 487.80741554 C227.59762948 490.33830974 218.45476047 490.42427756 208.62593079 490.38768005 C206.78787527 490.39185937 204.94982234 490.39734016 203.11177415 490.40399987 C198.09074282 490.41839505 193.06987648 490.41422832 188.04883635 490.40683305 C182.62193317 490.40208887 177.19506504 490.41462238 171.76817322 490.42485046 C161.14723016 490.44202026 150.52634631 490.44288211 139.90539298 490.43763756 C131.26836062 490.43359066 122.63134572 490.4350456 113.99431419 490.44038582 C112.76346146 490.44113424 111.53260873 490.44188266 110.26445743 490.44265376 C107.76367853 490.4441853 105.26289964 490.44572365 102.76212075 490.44726873 C79.99282753 490.46059673 57.22356518 490.45628045 34.4542726 490.44505819 C13.70133653 490.43496099 -7.05151858 490.44330408 -27.80444336 490.46655273 C-51.15178139 490.49264159 -74.49907032 490.5054127 -97.84642345 490.49836498 C-110.19658313 490.49487748 -122.54667638 490.49707367 -134.89682579 490.51461601 C-145.41204686 490.52936721 -155.92715473 490.52993548 -166.44237366 490.5125451 C-171.801595 490.50405614 -177.16061438 490.50183392 -182.51982498 490.51719666 C-187.4369535 490.53111691 -192.3537084 490.52618702 -197.27081571 490.50695742 C-199.03856774 490.50321943 -200.80635023 490.50605494 -202.57407495 490.51656907 C-217.14694162 490.5970021 -232.59369421 489.42843773 -245.5625 482.125 C-246.54730347 481.59966675 -246.54730347 481.59966675 -247.55200195 481.0637207 C-249.38588276 480.07058624 -251.19599106 479.04619701 -253 478 C-253.83789062 477.51660156 -254.67578125 477.03320312 -255.5390625 476.53515625 C-267.18442136 469.23034024 -276.66192709 459.81908142 -285 449 C-285.73283203 448.11634766 -285.73283203 448.11634766 -286.48046875 447.21484375 C-296.81009054 434.14402783 -303.09763271 413.80105276 -303.14044189 397.37438965 C-303.14615204 396.05693756 -303.15186218 394.73948547 -303.15774536 393.3821106 C-303.15899053 391.93377695 -303.16011567 390.4854432 -303.16113281 389.03710938 C-303.16576545 387.50230796 -303.17079071 385.96750769 -303.17617798 384.43270874 C-303.18926505 380.27110014 -303.19574025 376.10950765 -303.20018864 371.9478817 C-303.20312664 369.34229188 -303.20723291 366.7367064 -303.21169281 364.13111877 C-303.22536091 355.96295808 -303.23502971 347.79480736 -303.2388947 339.62663603 C-303.24336738 330.22800855 -303.26088137 320.82952708 -303.2898953 311.43094397 C-303.31159148 304.14743429 -303.32160327 296.86396544 -303.32293582 289.58042383 C-303.32397861 285.23948701 -303.32977286 280.89868756 -303.34775543 276.55778503 C-303.36437294 272.46684292 -303.36632616 268.3761394 -303.35761642 264.28517532 C-303.35685318 262.79459107 -303.36109309 261.30399326 -303.37107468 259.81344223 C-303.53934777 233.0891161 -293.15812074 208.78312989 -274.63574219 189.59472656 C-250.79509772 166.35187736 -223.2155284 161.34552727 -191.07739258 161.5847168 C-188.18788297 161.59918688 -185.29962026 161.58406236 -182.41015625 161.56640625 C-181.53625748 161.58288712 -180.6623587 161.59936798 -179.76197815 161.61634827 C-175.36939049 161.58010682 -173.59527553 161.48314235 -170.07739258 158.62792969 C-169.39185303 157.76071289 -168.70631348 156.89349609 -168 156 C-166.68902344 154.70642578 -166.68902344 154.70642578 -165.3515625 153.38671875 C-160.73491435 148.81636936 -156.2166901 144.22775185 -152 139.28125 C-149.28158921 136.18056269 -146.44767079 133.19309562 -143.625 130.1875 C-138.96361144 125.20989489 -134.57127684 120.10374225 -130.30859375 114.77734375 C-127.64720219 111.57556812 -124.84533495 108.53769562 -122 105.5 C-117.50159128 100.69594288 -113.27085218 95.7516029 -109.1484375 90.6171875 C-106.98488228 87.98158387 -104.7361044 85.45576625 -102.4375 82.9375 C-98.74902045 78.88979462 -95.31182087 74.70053994 -91.92578125 70.3984375 C-89.49704305 67.37359926 -86.9415874 64.47720877 -84.34765625 61.59375 C-82.91493271 60.02655809 -82.91493271 60.02655809 -82 58 C-81.34 58 -80.68 58 -80 58 C-78.75185669 59.40678023 -77.5769161 60.87879704 -76.4375 62.375 C-73.60450997 66.01595469 -70.69553119 69.4891277 -67.5625 72.875 C-63.46760652 77.36322801 -59.85390011 82.10174308 -56.25 86.98828125 C-49.96536758 95.40052361 -43.0753383 103.25140287 -36 111 C-23.1163691 125.25007661 -23.1163691 125.25007661 -17.26171875 132.28125 C-16.53251221 133.15366333 -16.53251221 133.15366333 -15.78857422 134.04370117 C-14.824069 135.19948025 -13.86328447 136.35837723 -12.90673828 137.52075195 C-10.47117799 140.43737267 -8.07789544 142.79007189 -5 145 C-4.19045625 136.61458642 -3.81869519 128.29284748 -3.71875 119.87109375 C-3.69113586 118.02826561 -3.69113586 118.02826561 -3.66296387 116.14820862 C-3.60477812 112.24468321 -3.55185756 108.34111422 -3.5 104.4375 C-2.85781729 57.0870278 -2.85781729 57.0870278 -1.4375 39.36328125 C-0.82208578 31.63815 -0.92577766 23.93048029 -1 16.1875 C-1.02655503 13.32682766 -1.04646731 10.46621696 -1.0625 7.60546875 C-1.07410156 6.35918701 -1.08570313 5.11290527 -1.09765625 3.82885742 C-1 1 -1 1 0 0 Z " fill="#3B526F" transform="translate(343,22)"/>
<path d="M0 0 C0.99 0.99 0.99 0.99 2 2 C1.74029068 7.20182481 -0.3668896 11.01909045 -2.875 15.4375 C-6.88864011 22.61941646 -10.04017095 29.97041286 -12.875 37.6875 C-15.41633792 44.53290788 -18.14116197 51.28035178 -21 58 C-24.49629637 66.27493342 -27.81437309 74.60052698 -31 83 C-31.30035156 83.77601563 -31.60070312 84.55203125 -31.91015625 85.3515625 C-33.51006488 89.51614879 -34.79595199 93.70641602 -36 98 C-18.0655193 96.12215165 -18.0655193 96.12215165 -1.02197266 90.7824707 C3.27224871 89.12067651 7.82326221 88.28816494 12.3125 87.3125 C13.31345703 87.08755859 14.31441406 86.86261719 15.34570312 86.63085938 C22.68704882 85 22.68704882 85 25 85 C25.65895285 93.96908052 23.77900436 101.50170541 21 110 C20.34 110 19.68 110 19 110 C18.62875 111.08667969 18.62875 111.08667969 18.25 112.1953125 C13.30171883 123.29801837 2.0626367 130.55490258 -8.82080078 134.8737793 C-17.11446556 137.99832771 -25.1371708 140.21171952 -34 141 C-34.66191849 141.08027939 -35.32383698 141.16055878 -36.0058136 141.24327087 C-44.83600469 142.22142287 -53.65590158 142.12116495 -62.52681541 142.10753441 C-67.52899674 142.10396047 -72.53107308 142.12987298 -77.53320312 142.15039062 C-83.86150573 142.17464452 -90.18947967 142.1904528 -96.51782227 142.17504883 C-101.66609888 142.16329465 -106.81357353 142.18102243 -111.96172523 142.21749306 C-113.90503531 142.22602273 -115.84842384 142.22416162 -117.79170799 142.210989 C-133.86575101 142.11016402 -146.44533709 144.85830195 -160.08203125 153.80078125 C-162 155 -162 155 -165 156 C-165 156.66 -165 157.32 -165 158 C-165.70125 158.680625 -166.4025 159.36125 -167.125 160.0625 C-173.88932048 166.6538691 -177.05013853 173.84933432 -179 183 C-179.66 183 -180.32 183 -181 183 C-180.95875 184.051875 -180.9175 185.10375 -180.875 186.1875 C-180.86301875 189.88773052 -181.34891585 193.33028303 -181.99064636 196.97183228 C-183.0649673 203.77561289 -183.2894151 210.38547905 -183.2746582 217.26318359 C-183.27976913 218.51870529 -183.28488007 219.77422699 -183.29014587 221.0677948 C-183.30156293 224.47089751 -183.30413197 227.87375451 -183.30158257 231.27685881 C-183.3005024 234.13671886 -183.30542262 236.9965572 -183.310188 239.85641253 C-183.32123008 246.61295087 -183.32175057 253.3694336 -183.31567383 260.12597656 C-183.30963757 267.05437878 -183.3219484 273.98257773 -183.3432439 280.9109453 C-183.36095913 286.89866645 -183.36684577 292.88632348 -183.36360615 298.87406981 C-183.36180897 302.4330135 -183.36427044 305.99181215 -183.37832069 309.55073166 C-183.46387757 333.26246239 -183.06588139 352.28308848 -167 371 C-166.32066406 371.86882812 -165.64132813 372.73765625 -164.94140625 373.6328125 C-159.48845799 380.28167898 -151.84576629 383.05396128 -144 386 C-143.10818537 386.34771287 -142.21637074 386.69542573 -141.29753143 387.05367535 C-137.5584523 388.12671523 -134.12660717 388.27859904 -130.27465343 388.25447559 C-129.51234695 388.25768207 -128.75004047 388.26088855 -127.96463379 388.26419219 C-125.40743215 388.27250082 -122.85046419 388.26656489 -120.29325867 388.26069641 C-118.44245764 388.2637167 -116.59165785 388.26760557 -114.74086028 388.27228898 C-109.65246381 388.28259356 -104.56413761 388.28038089 -99.47573531 388.27610838 C-93.98890202 388.2736456 -88.50208585 388.28264978 -83.01525879 388.29014587 C-72.26470582 388.30290765 -61.51417782 388.3046847 -50.76361855 388.30234561 C-42.02623026 388.30056384 -33.28884956 388.30230906 -24.55146217 388.30657005 C-23.30873642 388.30716524 -22.06601067 388.30776043 -20.78562656 388.30837366 C-18.26115435 388.30958539 -15.73668213 388.31079952 -13.21220992 388.31201603 C3.74301727 388.31980554 20.69824135 388.3237208 37.65347004 388.31969929 C38.64809183 388.31946472 38.64809183 388.31946472 39.66280699 388.31922542 C43.02356101 388.31841964 46.38431501 388.31757387 49.745069 388.31671212 C50.4125241 388.31654103 51.07997919 388.31636994 51.7676602 388.31619367 C53.11741698 388.31584702 54.46717376 388.31549849 55.81693053 388.31514808 C76.81701652 388.30979142 97.81706052 388.31771951 118.81713867 388.33618164 C142.41190483 388.35690059 166.00665163 388.36759341 189.60142869 388.36360615 C202.09391807 388.36169241 214.58636919 388.36419846 227.0788517 388.37832069 C237.71452247 388.39022203 248.35013144 388.39165342 258.98580305 388.37953053 C264.41268897 388.37363294 269.83946179 388.37256676 275.26634026 388.38453293 C280.23502991 388.3953615 285.2035116 388.39232438 290.1721914 388.37827124 C291.96893004 388.37561596 293.76568482 388.37801687 295.56240765 388.38600711 C304.24651677 388.42194332 311.8337979 388.33146592 320 385 C321.32 385 322.64 385 324 385 C324 384.34 324 383.68 324 383 C325.68772587 381.85317401 327.42741219 380.78233684 329.1875 379.75 C333.81918941 376.91026241 336.75522227 374.29148023 340 370 C340.66 370 341.32 370 342 370 C342.26941406 369.43539063 342.53882813 368.87078125 342.81640625 368.2890625 C344.06077282 365.88246577 345.47724642 363.65641399 346.9375 361.375 C354.13566065 349.41903072 354.14783693 336.63877547 354.19287109 323.04516602 C354.20078947 321.65434066 354.20905944 320.26351728 354.21765137 318.87269592 C354.24367506 314.33311878 354.25916112 309.79353332 354.2734375 305.25390625 C354.27880562 303.68020054 354.28418313 302.10649487 354.28956985 300.53278923 C354.31117142 293.97774455 354.32990111 287.42270213 354.34119225 280.86763096 C354.35739085 271.53091695 354.39050013 262.19462154 354.44759309 252.85806519 C354.48653076 246.26147892 354.50585295 239.66500346 354.51111281 233.06830543 C354.5147344 229.1441009 354.52640894 225.22034476 354.55921555 221.29626656 C354.87357351 189.72698321 354.87357351 189.72698321 341 162 C335.64972852 156.69714599 329.74514671 152.49906121 323.0546875 149.05859375 C321.08946833 148.0460949 319.24899632 146.92020659 317.375 145.75 C309.81301332 141.82896987 300.60657332 142.73691662 292.2734375 142.65820312 C284.72469098 142.44687754 284.72469098 142.44687754 280.90234375 140.08984375 C276 134.70431211 276 134.70431211 276 132 C275.34 132 274.68 132 274 132 C272.58984375 130.6015625 272.58984375 130.6015625 270.9375 128.625 C268.16471468 125.35542398 265.33398783 122.16069449 262.4375 119 C252 107.41866438 252 107.41866438 252 104 C251.34 104 250.68 104 250 104 C250 103.34 250 102.68 250 102 C257.21672766 101.9060383 264.433317 101.8356119 271.6505394 101.79275131 C275.00431352 101.77214772 278.35734093 101.74206384 281.7109375 101.69824219 C309.65888852 101.34261706 333.0903389 104.0141227 356 121 C356.86109375 121.63808594 357.7221875 122.27617187 358.609375 122.93359375 C372.91527197 133.97401424 382.11155884 146.15446206 388.8125 162.8125 C389.21118286 163.78606445 389.21118286 163.78606445 389.61791992 164.77929688 C390.51893039 167.1608423 391.25859914 169.56341438 392 172 C392.50209991 173.59884033 392.50209991 173.59884033 393.01434326 175.22998047 C397.30336822 190.49017265 396.57058421 206.32069855 396.50437045 222.02433944 C396.49033541 226.189268 396.49700041 230.35417546 396.50050354 234.51911926 C396.5031904 241.50459831 396.48985941 248.48990403 396.46655273 255.4753418 C396.43992132 263.51209628 396.43821161 271.54856191 396.4499411 279.58534545 C396.46077651 287.37229053 396.45448887 295.15913275 396.44038582 302.94606972 C396.43467889 306.23555289 396.43466631 309.52495947 396.43945122 312.81444359 C396.44427744 316.69630084 396.43389008 320.57784782 396.41249657 324.45964622 C396.40700556 325.87078811 396.40639105 327.28196029 396.41144943 328.69310379 C396.49901988 356.66145767 385.82519386 382.42589235 366.625 402.75 C354.08429551 414.56159376 339.60686071 422.63972233 323 427 C322.06928608 427.26644713 321.13857215 427.53289426 320.17965478 427.80741554 C310.59762948 430.33830974 301.45476047 430.42427756 291.62593079 430.38768005 C289.78787527 430.39185937 287.94982234 430.39734016 286.11177415 430.40399987 C281.09074282 430.41839505 276.06987648 430.41422832 271.04883635 430.40683305 C265.62193317 430.40208887 260.19506504 430.41462238 254.76817322 430.42485046 C244.14723016 430.44202026 233.52634631 430.44288211 222.90539298 430.43763756 C214.26836062 430.43359066 205.63134572 430.4350456 196.99431419 430.44038582 C195.76346146 430.44113424 194.53260873 430.44188266 193.26445743 430.44265376 C190.76367853 430.4441853 188.26289964 430.44572365 185.76212075 430.44726873 C162.99282753 430.46059673 140.22356518 430.45628045 117.4542726 430.44505819 C96.70133653 430.43496099 75.94848142 430.44330408 55.19555664 430.46655273 C31.84821861 430.49264159 8.50092968 430.5054127 -14.84642345 430.49836498 C-27.19658313 430.49487748 -39.54667638 430.49707367 -51.89682579 430.51461601 C-62.41204686 430.52936721 -72.92715473 430.52993548 -83.44237366 430.5125451 C-88.801595 430.50405614 -94.16061438 430.50183392 -99.51982498 430.51719666 C-104.4369535 430.53111691 -109.3537084 430.52618702 -114.27081571 430.50695742 C-116.03856774 430.50321943 -117.80635023 430.50605494 -119.57407495 430.51656907 C-134.14694162 430.5970021 -149.59369421 429.42843773 -162.5625 422.125 C-163.54730347 421.59966675 -163.54730347 421.59966675 -164.55200195 421.0637207 C-166.38588276 420.07058624 -168.19599106 419.04619701 -170 418 C-170.83789062 417.51660156 -171.67578125 417.03320312 -172.5390625 416.53515625 C-184.18442136 409.23034024 -193.66192709 399.81908142 -202 389 C-202.73283203 388.11634766 -202.73283203 388.11634766 -203.48046875 387.21484375 C-213.81009054 374.14402783 -220.09763271 353.80105276 -220.14044189 337.37438965 C-220.14615204 336.05693756 -220.15186218 334.73948547 -220.15774536 333.3821106 C-220.15899053 331.93377695 -220.16011567 330.4854432 -220.16113281 329.03710938 C-220.16576545 327.50230796 -220.17079071 325.96750769 -220.17617798 324.43270874 C-220.18926505 320.27110014 -220.19574025 316.10950765 -220.20018864 311.9478817 C-220.20312664 309.34229188 -220.20723291 306.7367064 -220.21169281 304.13111877 C-220.22536091 295.96295808 -220.23502971 287.79480736 -220.2388947 279.62663603 C-220.24336738 270.22800855 -220.26088137 260.82952708 -220.2898953 251.43094397 C-220.31159148 244.14743429 -220.32160327 236.86396544 -220.32293582 229.58042383 C-220.32397861 225.23948701 -220.32977286 220.89868756 -220.34775543 216.55778503 C-220.36437294 212.46684292 -220.36632616 208.3761394 -220.35761642 204.28517532 C-220.35685318 202.79459107 -220.36109309 201.30399326 -220.37107468 199.81344223 C-220.53934777 173.0891161 -210.15812074 148.78312989 -191.63574219 129.59472656 C-167.79509772 106.35187736 -140.2155284 101.34552727 -108.07739258 101.5847168 C-105.18788297 101.59918688 -102.29962026 101.58406236 -99.41015625 101.56640625 C-98.53625748 101.58288712 -97.6623587 101.59936798 -96.76197815 101.61634827 C-92.36939049 101.58010682 -90.59527553 101.48314235 -87.07739258 98.62792969 C-86.39185303 97.76071289 -85.70631348 96.89349609 -85 96 C-84.12601563 95.13761719 -83.25203125 94.27523437 -82.3515625 93.38671875 C-77.73491435 88.81636936 -73.2166901 84.22775185 -69 79.28125 C-66.28158921 76.18056269 -63.44767079 73.19309562 -60.625 70.1875 C-55.96361144 65.20989489 -51.57127684 60.10374225 -47.30859375 54.77734375 C-44.64720219 51.57556812 -41.84533495 48.53769562 -39 45.5 C-34.50159128 40.69594288 -30.27085218 35.7516029 -26.1484375 30.6171875 C-23.98488228 27.98158387 -21.7361044 25.45576625 -19.4375 22.9375 C-15.75099181 18.89195797 -12.31629345 14.70411137 -8.9296875 10.40625 C-6.0670181 6.83660557 -3.04884454 3.41089482 0 0 Z " fill="#03C1FE" transform="translate(260,82)"/>
<path d="M0 0 C0.83640015 0.00202423 1.67280029 0.00404846 2.5345459 0.00613403 C3.84908752 0.00350555 3.84908752 0.00350555 5.19018555 0.00082397 C8.10186717 -0.00359576 11.0134886 -0.00065613 13.9251709 0.00271606 C15.93916841 0.00204306 17.95316585 0.00107306 19.96716309 -0.00018311 C24.19405895 -0.00166024 28.42093373 0.00049499 32.64782715 0.00515747 C38.07897622 0.01085476 43.51007589 0.00757584 48.94122314 0.00158501 C53.10176977 -0.00202018 57.26230459 -0.00088222 61.42285156 0.0017128 C63.42602545 0.00238219 65.42920039 0.00155324 67.43237305 -0.00076675 C70.22687642 -0.00329258 73.02129861 0.00054632 75.8157959 0.00613403 C77.07039612 0.00309769 77.07039612 0.00309769 78.3503418 0 C84.06090848 0.02126614 84.06090848 0.02126614 85.1751709 1.13552856 C85.32696468 3.44454553 85.39698211 5.75919925 85.4251709 8.07302856 C85.45095215 9.340177 85.4767334 10.60732544 85.5032959 11.91287231 C85.39501465 12.97634888 85.2867334 14.03982544 85.1751709 15.13552856 C84.1851709 15.79552856 83.1951709 16.45552856 82.1751709 17.13552856 C81.73685803 19.47525375 81.73685803 19.47525375 81.83459473 22.22781372 C81.83482132 23.28876251 81.83504791 24.3497113 81.83528137 25.44281006 C81.85076523 26.59179779 81.86624908 27.74078552 81.88220215 28.92459106 C81.88644699 30.09815155 81.89069183 31.27171204 81.89506531 32.48083496 C81.91190114 36.24096311 81.94956312 40.00056154 81.9876709 43.76052856 C82.00271136 46.30479168 82.01640087 48.84906316 82.02868652 51.39334106 C82.06182073 57.64091862 82.11206883 63.88818576 82.1751709 70.13552856 C84.1551709 70.63052856 84.1551709 70.63052856 86.1751709 71.13552856 C86.1751709 75.75552856 86.1751709 80.37552856 86.1751709 85.13552856 C84.5251709 85.46552856 82.8751709 85.79552856 81.1751709 86.13552856 C81.1751709 117.81552856 81.1751709 149.49552856 81.1751709 182.13552856 C69.2951709 182.13552856 57.4151709 182.13552856 45.1751709 182.13552856 C45.1751709 150.45552856 45.1751709 118.77552856 45.1751709 86.13552856 C41.5451709 86.13552856 37.9151709 86.13552856 34.1751709 86.13552856 C33.8451709 117.81552856 33.5151709 149.49552856 33.1751709 182.13552856 C21.2951709 182.13552856 9.4151709 182.13552856 -2.8248291 182.13552856 C-2.88342633 162.05132875 -2.66949706 141.98196218 -2.36126709 121.90090942 C-2.2995202 117.85023066 -2.24002019 113.79951885 -2.18029785 109.74880981 C-2.06393397 101.87768324 -1.94519748 94.00659504 -1.8248291 86.13552856 C-3.8048291 86.13552856 -5.7848291 86.13552856 -7.8248291 86.13552856 C-7.8248291 81.18552856 -7.8248291 76.23552856 -7.8248291 71.13552856 C-4.8548291 70.64052856 -4.8548291 70.64052856 -1.8248291 70.13552856 C-1.4948291 52.64552856 -1.1648291 35.15552856 -0.8248291 17.13552856 C-2.8048291 17.13552856 -4.7848291 17.13552856 -6.8248291 17.13552856 C-6.85167589 14.48962842 -6.87159267 11.84399761 -6.8873291 9.19802856 C-6.89570801 8.44328247 -6.90408691 7.68853638 -6.91271973 6.91091919 C-6.92135351 4.98558543 -6.87707243 3.06017276 -6.8248291 1.13552856 C-4.99364826 -0.69565227 -2.43715865 0.00907598 0 0 Z " fill="#FDFDFD" transform="translate(347.8248291015625,258.8644714355469)"/>
<path d="M0 0 C26.73 0 53.46 0 81 0 C81 5.28 81 10.56 81 16 C67.635 16.495 67.635 16.495 54 17 C51.03 27.23 48.06 37.46 45 48 C53.61599443 47.84229284 53.61599443 47.84229284 62.23095703 47.63964844 C73.36022969 47.53682994 73.36022969 47.53682994 78 52 C80.15426578 55.23139868 80.25416257 56.11098549 80.27415466 59.83808899 C80.28412979 60.83482635 80.29410492 61.83156372 80.30438232 62.85850525 C80.305047 63.95103104 80.30571167 65.04355682 80.30639648 66.16918945 C80.31472 67.32066467 80.32304352 68.47213989 80.33161926 69.6585083 C80.35577552 73.47680004 80.36449854 77.29492112 80.37109375 81.11328125 C80.37779164 83.09324293 80.38449168 85.07320463 80.39152867 87.05316514 C80.41300483 93.28178833 80.42233516 99.51035703 80.42553711 105.73901367 C80.42917052 112.15855394 80.45905038 118.57761555 80.50094169 124.99700958 C80.53566736 130.51220912 80.55108595 136.02725026 80.55178314 141.54255837 C80.55257535 144.83493441 80.56365919 148.12671323 80.58978081 151.41900063 C80.61661592 155.09396713 80.61189151 158.76761272 80.59936523 162.44262695 C80.61419952 163.52908005 80.62903381 164.61553314 80.64431763 165.73490906 C80.5643726 173.96549535 80.5643726 173.96549535 77.58753967 177.65983582 C73.82941901 181.05867042 71.98123372 181.1424147 66.99316406 181.24047852 C65.73135315 181.26622452 64.46954224 181.29197052 63.16949463 181.3184967 C57.39154333 181.40799538 51.61340351 181.46856318 45.83496094 181.51489258 C42.7847444 181.54163318 39.73609176 181.59035027 36.68652344 181.65844727 C33.0011526 181.74052716 29.31727005 181.78309425 25.63103485 181.79795647 C24.22909562 181.81018364 22.82720397 181.83617091 21.42578888 181.87640572 C19.4593308 181.93003034 17.491599 181.92812179 15.52441406 181.92407227 C14.40681702 181.93882095 13.28921997 181.95356964 12.13775635 181.96876526 C8.03035598 180.70062767 6.52226011 178.81884658 4.15776825 175.30796719 C2.25374151 171.51236194 2.16335944 168.10920704 2.22705078 163.921875 C2.21642105 163.05263901 2.20579132 162.18340302 2.19483948 161.28782654 C2.16694282 158.4412835 2.18080647 155.59661534 2.1953125 152.75 C2.18405442 150.76601554 2.17017032 148.78204439 2.15377808 146.7980957 C2.11781235 141.59645435 2.11735745 136.39540163 2.12445068 131.19366455 C2.12536504 125.8777012 2.09248443 120.56195673 2.0625 115.24609375 C2.00870561 104.83066748 1.99244779 94.41554989 2 84 C1.01 83.67 0.02 83.34 -1 83 C-1.46904215 75.69887226 0.25365904 69.53439 2.3125 62.5625 C2.62123047 61.48162109 2.92996094 60.40074219 3.24804688 59.28710938 C4.60889619 54.56281354 6.01959691 49.868664 7.60546875 45.21484375 C8.97281784 41.18949587 10.02445381 37.13533418 11 33 C12.39979479 27.22212362 13.99997144 21.60007997 16 16 C10.72 16 5.44 16 0 16 C0 10.72 0 5.44 0 0 Z " fill="#FCFCFD" transform="translate(254,260)"/>
<path d="M0 0 C0.66 0.33 1.32 0.66 2 1 C2.02515393 5.15852493 2.04306897 9.31700684 2.05493164 13.47558594 C2.05988898 14.88347141 2.06665686 16.29135194 2.07543945 17.69921875 C2.11730759 24.59514649 2.10570226 31.45586058 1.55859375 38.3359375 C-0.26585091 61.32784626 -0.24805058 84.4720335 -0.55224609 107.52124023 C-0.60415884 111.36968941 -0.66121607 115.21803761 -0.71875 119.06640625 C-0.73232544 120.2206459 -0.74590088 121.37488556 -0.7598877 122.56410217 C-1.02732861 140.05465721 -1.02732861 140.05465721 -3 144 C-6.89252812 142.44298875 -9.06142977 139.98565894 -11.8125 136.875 C-12.25263428 136.3807251 -12.69276855 135.8864502 -13.14624023 135.37719727 C-14.43741004 133.92395396 -15.7188985 132.46212671 -17 131 C-17.62390625 130.28972656 -18.2478125 129.57945312 -18.890625 128.84765625 C-20.0035156 127.57615274 -21.11420279 126.30271726 -22.22265625 125.02734375 C-24.29359487 122.66510827 -26.39512848 120.33204147 -28.5 118 C-32.37475328 113.70124173 -36.21985195 109.38222808 -40 105 C-40.845625 104.02160156 -41.69125 103.04320313 -42.5625 102.03515625 C-48.6856507 94.90205675 -54.45787646 87.59476189 -60 80 C-59.01 79.505 -59.01 79.505 -58 79 C-57.76023437 78.32582031 -57.52046875 77.65164062 -57.2734375 76.95703125 C-55.42007836 72.65337213 -52.54104215 69.32827811 -49.625 65.6875 C-48.34525305 64.06597259 -47.06662629 62.44356053 -45.7890625 60.8203125 C-45.1487207 60.00852539 -44.50837891 59.19673828 -43.84863281 58.36035156 C-41.1867049 54.96157725 -38.58492936 51.52003487 -36 48.0625 C-35.27695679 47.09703247 -35.27695679 47.09703247 -34.53930664 46.11206055 C-31.87011473 42.53714778 -29.22576606 38.94506181 -26.59765625 35.33984375 C-20.33469932 26.75965355 -13.98316642 18.31962942 -7.17407227 10.16210938 C-4.46945875 6.9053489 -2.05902543 3.72181229 0 0 Z " fill="#03C1FE" transform="translate(341,23)"/>
<path d="M0 0 C4.74886417 3.68300799 6.00240107 8.71139081 7.875 14.1875 C8.22232178 15.17202148 8.56964355 16.15654297 8.92749023 17.17089844 C9.96247024 20.1102893 10.98278842 23.0544204 12 26 C13.01695346 28.91803382 14.03881474 31.8343219 15.0625 34.75 C15.30170166 35.43481445 15.54090332 36.11962891 15.78735352 36.82519531 C17.51790152 41.74243464 19.39112701 46.59210902 21.3125 51.4375 C24.75501828 60.12640837 27.80159939 68.94127392 30.80395508 77.79077148 C32.764845 83.54610498 34.84196549 89.21456432 37.1394043 94.84399414 C38.21027794 97.52679843 39.10367218 100.25452528 40 103 C40.69836961 104.85367247 41.39721768 106.70718894 42.10668945 108.55664062 C50.18877367 129.65686431 50.18877367 129.65686431 51 140 C50.34 140 49.68 140 49 140 C47.4201074 138.07692134 45.98430305 136.16170343 44.5625 134.125 C44.117854 133.4949707 43.67320801 132.86494141 43.21508789 132.21582031 C39.44324557 126.79408583 36.00567867 121.19671113 32.60864258 115.53540039 C26.99812346 106.23571956 20.98567506 97.19963665 15.015625 88.12890625 C11.80785475 83.25057444 8.65322415 78.34135278 5.52783203 73.40991211 C3.63839453 70.42962486 1.7264856 67.4645765 -0.1875 64.5 C-3.91966036 58.70260602 -7.62305738 52.88716457 -11.3125 47.0625 C-11.81612061 46.26972656 -12.31974121 45.47695312 -12.83862305 44.66015625 C-13.79328691 43.15029215 -14.74143649 41.63628386 -15.68212891 40.11767578 C-16.5399885 38.73918854 -17.41649904 37.37207855 -18.31396484 36.01904297 C-19.48046875 34.18359375 -19.48046875 34.18359375 -21 31 C-20.53515625 28.96484375 -20.53515625 28.96484375 -19 27 C-18.31808594 26.01128906 -17.63617188 25.02257812 -16.93359375 24.00390625 C-16.10409815 22.85493596 -15.27192529 21.70789517 -14.4375 20.5625 C-13.54215192 19.32220383 -12.64764112 18.08130287 -11.75390625 16.83984375 C-11.29902832 16.20804199 -10.84415039 15.57624023 -10.37548828 14.92529297 C-6.85320928 9.99510265 -3.43327134 4.99234141 0 0 Z " fill="#05C3FD" transform="translate(417,73)"/>
<path d="M0 0 C0.99 0 1.98 0 3 0 C3 4.62 3 9.24 3 14 C4.98 14 6.96 14 9 14 C9 31.49 9 48.98 9 67 C1 70 1 70 -1 70 C-0.90460938 70.84304688 -0.80921875 71.68609375 -0.7109375 72.5546875 C-0.60007812 73.65039062 -0.48921875 74.74609375 -0.375 75.875 C-0.25898438 76.96554687 -0.14296875 78.05609375 -0.0234375 79.1796875 C-0.01183594 80.57574219 -0.01183594 80.57574219 0 82 C-0.66 82.66 -1.32 83.32 -2 84 C-2.21763444 86.76924021 -2.31142149 89.44144644 -2.31884766 92.21337891 C-2.33391609 93.48665794 -2.33391609 93.48665794 -2.34928894 94.78565979 C-2.38024907 97.59928695 -2.39719155 100.41281843 -2.4140625 103.2265625 C-2.43276384 105.174274 -2.45233647 107.12197731 -2.4727478 109.06967163 C-2.52418427 114.20214013 -2.56374823 119.33463493 -2.60089111 124.46722412 C-2.64085875 129.70217455 -2.69198402 134.93701449 -2.7421875 140.171875 C-2.83908305 150.44783918 -2.92344405 160.72386558 -3 171 C-3.33 171 -3.66 171 -4 171 C-4.00054477 170.39646855 -4.00108953 169.79293711 -4.00165081 169.17111683 C-4.01662213 154.48166306 -4.05908301 139.79246639 -4.13209057 125.10319233 C-4.1667348 117.99950545 -4.19209531 110.89601249 -4.19555664 103.79223633 C-4.19892223 96.93856077 -4.22821719 90.08538856 -4.27343178 83.23186302 C-4.28643629 80.61519395 -4.29070409 77.99846661 -4.28615379 75.38176918 C-4.2812692 71.72052764 -4.3072488 68.06072328 -4.34057617 64.3996582 C-4.33195053 63.31424744 -4.32332489 62.22883667 -4.31443787 61.11053467 C-4.38143096 55.02073595 -4.38143096 55.02073595 -7.41621399 49.85002136 C-11.27270494 47.0887282 -13.37539161 46.83818812 -18.1015625 46.68359375 C-19.91914063 46.62075195 -19.91914063 46.62075195 -21.7734375 46.55664062 C-23.04445313 46.51732422 -24.31546875 46.47800781 -25.625 46.4375 C-27.543125 46.37272461 -27.543125 46.37272461 -29.5 46.30664062 C-32.66655348 46.20030114 -35.83318753 46.09827167 -39 46 C-37.80087142 38.60995964 -36.14718072 31.52554832 -33.9375 24.375 C-33.66873047 23.47910156 -33.39996094 22.58320313 -33.12304688 21.66015625 C-31.13898923 15.13898923 -31.13898923 15.13898923 -30 14 C-28.07332493 13.91251793 -26.14348139 13.89302666 -24.21484375 13.90234375 C-22.46010742 13.90717773 -22.46010742 13.90717773 -20.66992188 13.91210938 C-19.43822266 13.92048828 -18.20652344 13.92886719 -16.9375 13.9375 C-15.08415039 13.94426758 -15.08415039 13.94426758 -13.19335938 13.95117188 C-10.12885883 13.96300392 -7.06445279 13.97948827 -4 14 C-4 14.33 -4 14.66 -4 15 C-11.92 15.495 -11.92 15.495 -20 16 C-14.39 16 -8.78 16 -3 16 C-2.67 14.35 -2.34 12.7 -2 11 C-1.34 10.67 -0.68 10.34 0 10 C-0.08378906 9.36191406 -0.16757812 8.72382813 -0.25390625 8.06640625 C-0.40666016 6.82697266 -0.40666016 6.82697266 -0.5625 5.5625 C-0.71912109 4.32693359 -0.71912109 4.32693359 -0.87890625 3.06640625 C-0.93884766 2.04353516 -0.93884766 2.04353516 -1 1 C-0.67 0.67 -0.34 0.34 0 0 Z " fill="#425E78" transform="translate(338,262)"/>
<path d="M0 0 C1.65 0 3.3 0 5 0 C9.40700441 9.81638628 13.23512669 19.80457907 16.92749023 29.91015625 C17.29688721 30.91304687 17.66628418 31.9159375 18.046875 32.94921875 C18.37526367 33.84987061 18.70365234 34.75052246 19.04199219 35.6784668 C19.99704606 38.20721371 19.99704606 38.20721371 22 41 C23.97747122 41.36297936 23.97747122 41.36297936 26.125 41.1875 C27.40375 41.125625 28.6825 41.06375 30 41 C32.94164342 34.72410191 32.4075593 28.30651887 32.4375 21.5 C32.47037109 20.18128906 32.50324219 18.86257813 32.53710938 17.50390625 C32.54419922 16.23417969 32.55128906 14.96445312 32.55859375 13.65625 C32.57204834 12.49931641 32.58550293 11.34238281 32.59936523 10.15039062 C31.82888008 6.10055744 30.01245449 4.69948383 27 2 C27 1.34 27 0.68 27 0 C29.06066104 -0.1357683 31.12392757 -0.23233903 33.1875 -0.3125 C34.33605469 -0.37050781 35.48460937 -0.42851563 36.66796875 -0.48828125 C43.02546203 0.4433561 46.19396307 6.32119247 49.875 11.1875 C50.30554688 11.75049805 50.73609375 12.31349609 51.1796875 12.89355469 C54.46991951 17.22422464 57.59437846 21.65508327 60.625 26.171875 C61.8830132 28.1273363 61.8830132 28.1273363 64 29 C63.97711496 25.60269305 63.89969714 22.20871695 63.8125 18.8125 C63.80669922 17.85279297 63.80089844 16.89308594 63.79492188 15.90429688 C63.64826891 9.95417759 63.64826891 9.95417759 60.51171875 5.01171875 C59.68285156 4.34785156 58.85398437 3.68398438 58 3 C57.505 1.515 57.505 1.515 57 0 C62.28 0 67.56 0 73 0 C73 1.32 73 2.64 73 4 C71.35 4.33 69.7 4.66 68 5 C68 18.2 68 31.4 68 45 C61 44 61 44 59.15478516 42.53222656 C58.70409668 41.90799805 58.2534082 41.28376953 57.7890625 40.640625 C57.01139526 39.59358398 57.01139526 39.59358398 56.21801758 38.52539062 C55.42947388 37.39907227 55.42947388 37.39907227 54.625 36.25 C53.78908325 35.10821289 53.78908325 35.10821289 52.9362793 33.94335938 C48.73413317 28.16729655 44.6707821 22.28569932 40.70703125 16.34375 C39.21282487 13.91487013 39.21282487 13.91487013 37 13 C37.08111708 16.7300411 37.19394075 20.458476 37.3125 24.1875 C37.34633789 25.77014648 37.34633789 25.77014648 37.38085938 27.38476562 C37.41630859 28.40634766 37.45175781 29.42792969 37.48828125 30.48046875 C37.51446533 31.41785889 37.54064941 32.35524902 37.56762695 33.32104492 C38.07742024 36.47969075 39.1422284 38.41392499 41 41 C41.99 41.495 41.99 41.495 43 42 C43 42.66 43 43.32 43 44 C29.8 44 16.6 44 3 44 C3 43.34 3 42.68 3 42 C4.485 41.505 4.485 41.505 6 41 C6 37.7 6 34.4 6 31 C3.87420987 31.05988141 1.74921587 31.14862744 -0.375 31.25 C-1.55835938 31.29640625 -2.74171875 31.3428125 -3.9609375 31.390625 C-7.06702215 31.66124924 -7.06702215 31.66124924 -8.375 33.84375 C-9.15666765 36.54050341 -9.62088997 39.21985978 -10 42 C-8.35 42 -6.7 42 -5 42 C-4.67 42.66 -4.34 43.32 -4 44 C-9.61 44 -15.22 44 -21 44 C-20.67 43.01 -20.34 42.02 -20 41 C-18.515 40.505 -18.515 40.505 -17 40 C-15.53108387 37.30440037 -15.53108387 37.30440037 -14.2578125 33.9453125 C-13.88243851 33.02103958 -13.88243851 33.02103958 -13.4994812 32.07809448 C-12.69748927 30.09777236 -11.91076328 28.1118104 -11.125 26.125 C-10.08988311 23.54267606 -9.04893959 20.96271803 -8.0078125 18.3828125 C-7.75598206 17.7555426 -7.50415161 17.12827271 -7.24468994 16.48199463 C-4.99568121 10.90989697 -2.54935757 5.44023552 0 0 Z " fill="#4F6287" transform="translate(334,547)"/>
<path d="M0 0 C1.65 0 3.3 0 5 0 C9.39521577 9.79012767 13.21934547 19.75345703 16.92749023 29.82226562 C17.29688721 30.82193359 17.66628418 31.82160156 18.046875 32.8515625 C18.37526367 33.74697754 18.70365234 34.64239258 19.04199219 35.56494141 C19.91604762 37.78661033 20.89405561 39.88591163 22 42 C8 42 8 42 6 41 C6 37.7 6 34.4 6 31 C3.87420987 31.05988141 1.74921587 31.14862744 -0.375 31.25 C-1.55835938 31.29640625 -2.74171875 31.3428125 -3.9609375 31.390625 C-7.06702215 31.66124924 -7.06702215 31.66124924 -8.375 33.84375 C-9.15666765 36.54050341 -9.62088997 39.21985978 -10 42 C-8.35 42 -6.7 42 -5 42 C-4.67 42.66 -4.34 43.32 -4 44 C-9.61 44 -15.22 44 -21 44 C-20.67 43.01 -20.34 42.02 -20 41 C-18.515 40.505 -18.515 40.505 -17 40 C-15.53108387 37.30440037 -15.53108387 37.30440037 -14.2578125 33.9453125 C-13.88243851 33.02103958 -13.88243851 33.02103958 -13.4994812 32.07809448 C-12.69748927 30.09777236 -11.91076328 28.1118104 -11.125 26.125 C-10.08988311 23.54267606 -9.04893959 20.96271803 -8.0078125 18.3828125 C-7.75598206 17.7555426 -7.50415161 17.12827271 -7.24468994 16.48199463 C-4.99568121 10.90989697 -2.54935757 5.44023552 0 0 Z " fill="#4B6085" transform="translate(334,547)"/>
<path d="M0 0 C5.94 0 11.88 0 18 0 C17.773125 1.505625 17.54625 3.01125 17.3125 4.5625 C16.7746132 9.67242461 17.56929256 12.52749831 20 17 C23.22148832 16.27909864 23.22148832 16.27909864 24.6875 13.3125 C26.06559275 9.83445639 26.40173824 7.69599183 26 4 C25.34 2.68 24.68 1.36 24 0 C28.62 0 33.24 0 38 0 C37.01659448 3.93362206 35.90401267 5.42952117 33.31884766 8.39794922 C26.96767393 16.11294403 24.16397057 24.38760999 24.65625 34.2578125 C25.03493391 37.70588715 25.03493391 37.70588715 26 41 C27.32 41.99 28.64 42.98 30 44 C23.07 44 16.14 44 9 44 C9 43.34 9 42.68 9 42 C9.64453125 41.40574219 10.2890625 40.81148437 10.953125 40.19921875 C14.10736326 36.81021848 13.78998068 34.11427084 13.65234375 29.6328125 C12.07392612 20.84282212 7.48121593 12.27911576 2.23046875 5.11328125 C0 2 0 2 0 0 Z " fill="#3C5C85" transform="translate(273,547)"/>
<path d="M0 0 C1.98 0 3.96 0 6 0 C6 33.33 6 66.66 6 101 C4.02 101 2.04 101 0 101 C0 67.67 0 34.34 0 0 Z " fill="#2F5585" transform="translate(293,324)"/>
<path d="M0 0 C2.97 0 5.94 0 9 0 C9 18.15 9 36.3 9 55 C5.7 55 2.4 55 -1 55 C-1.02463993 47.32788327 -1.04283123 39.65578935 -1.05493164 31.98364258 C-1.05997377 29.37133381 -1.06680725 26.75902789 -1.07543945 24.14672852 C-1.08751036 20.40119732 -1.09322935 16.65570328 -1.09765625 12.91015625 C-1.10281754 11.73413345 -1.10797882 10.55811066 -1.11329651 9.34645081 C-1.11340981 7.72488319 -1.11340981 7.72488319 -1.11352539 6.07055664 C-1.115746 5.11347305 -1.11796661 4.15638947 -1.12025452 3.17030334 C-1 1 -1 1 0 0 Z " fill="#355D7A" transform="translate(384,275)"/>
<path d="M0 0 C2.05078125 0.03255208 4.1015625 0.06510417 6.15234375 0.09765625 C6.15234375 0.42765625 6.15234375 0.75765625 6.15234375 1.09765625 C1.10603106 2.74875841 -3.39347796 3.38486791 -8.71560383 3.34933853 C-9.48116133 3.35224541 -10.24671883 3.35515229 -11.03547505 3.35814726 C-13.59764932 3.3654391 -16.1595835 3.35850776 -18.72175598 3.35162354 C-20.57840859 3.35392827 -22.43506029 3.35710488 -24.29171008 3.36107802 C-29.39136485 3.36943251 -34.49094484 3.3652978 -39.59059989 3.35910559 C-45.09091251 3.35458496 -50.59121217 3.36156282 -56.09152222 3.36706543 C-66.8643237 3.37596433 -77.63709734 3.37403546 -88.40989993 3.36824015 C-97.16114927 3.3637268 -105.9123908 3.36310933 -114.66364098 3.36528778 C-115.9082523 3.36559425 -117.15286362 3.36590071 -118.43519044 3.36621647 C-120.96338124 3.3668559 -123.49157204 3.36750433 -126.01976284 3.36816165 C-149.0553354 3.37370344 -172.0908948 3.3679537 -195.12646416 3.35747645 C-216.16691849 3.34797947 -237.20734862 3.3488395 -258.24780273 3.35839844 C-281.88132932 3.36909953 -305.51484526 3.37332256 -329.14837474 3.36717391 C-331.66583327 3.36653679 -334.18329181 3.36590805 -336.70075035 3.36528778 C-338.55885911 3.36482495 -338.55885911 3.36482495 -340.45450542 3.36435278 C-349.20206811 3.36262277 -357.94962224 3.36554739 -366.69718361 3.37024689 C-377.34729408 3.37584264 -387.99737506 3.37436667 -398.64748213 3.3636854 C-404.08563565 3.35841187 -409.52373988 3.35640046 -414.96189308 3.3629837 C-419.9326058 3.36891034 -424.90322322 3.36572289 -429.8739272 3.3550286 C-431.67925882 3.3527806 -433.48459837 3.35396186 -435.28992496 3.35878018 C-437.72970522 3.36479614 -440.16915203 3.35869128 -442.60891438 3.34933853 C-443.67855859 3.35636203 -443.67855859 3.35636203 -444.76981178 3.36352742 C-449.61935532 3.32595718 -449.61935532 3.32595718 -451.84765625 1.09765625 C-450.89796559 1.09803597 -449.94827494 1.09841569 -448.96980578 1.09880692 C-392.74616564 1.12119901 -336.52252592 1.13833243 -280.29888222 1.14872158 C-273.55561874 1.14996897 -266.81235526 1.15126552 -260.0690918 1.15258789 C-259.39803819 1.15271865 -258.72698458 1.15284941 -258.03559601 1.15298413 C-236.26527197 1.15724927 -214.49495051 1.16476341 -192.72462804 1.17395347 C-169.72893291 1.18364323 -146.73323886 1.18964986 -123.73754162 1.19174474 C-109.95359776 1.1931203 -96.16966134 1.19747266 -82.38571977 1.20557272 C-72.9474528 1.21083822 -63.5091897 1.21246099 -54.07092137 1.21115763 C-48.61674971 1.21051394 -43.16259108 1.21153521 -37.70842171 1.21686172 C-32.72393995 1.2216943 -27.73948009 1.22199584 -22.75499737 1.21855514 C-20.94341641 1.21812931 -19.13183415 1.21942623 -17.32025582 1.22253943 C-14.87444421 1.22650111 -12.42871361 1.2244211 -9.98290348 1.22070408 C-8.90631735 1.2246446 -8.90631735 1.2246446 -7.807982 1.22866473 C-4.76273568 1.21806854 -2.67820104 0.14155397 0 0 Z " fill="#1C5E87" transform="translate(571.84765625,467.90234375)"/>
<path d="M0 0 C5.12281294 5.12281294 4.24441015 13.70934386 4.28216553 20.45263672 C4.27987222 21.83227575 4.27736259 23.21191444 4.2746582 24.59155273 C4.27901156 26.06267046 4.28419678 27.53378593 4.29014587 29.00489807 C4.30348867 32.98480345 4.30411919 36.96461356 4.30158257 40.94453692 C4.30050839 44.28113943 4.30540828 47.61772302 4.310188 50.95432144 C4.3212696 58.83992349 4.32172995 66.72547792 4.31567383 74.61108398 C4.30965196 82.70551134 4.32190252 90.79976407 4.3432439 98.89416164 C4.36095927 105.87373527 4.36684522 112.85325385 4.36360615 119.83284909 C4.36180689 123.98772463 4.36429076 128.14247597 4.37832069 132.29733086 C4.39105509 136.21514326 4.38881048 140.13268795 4.37590981 144.05049706 C4.37357693 145.47370247 4.37615753 146.89692764 4.38453293 148.32011032 C4.42696096 156.10256988 3.94300856 163.62896217 2.66423035 171.29725647 C2.54796336 172.02215914 2.43169638 172.74706181 2.31190616 173.49393123 C1.63738205 177.17061378 1.10840596 179.73195686 -2 182 C-1.50759673 177.65043779 -0.88396098 173.42804255 0.02388 169.14624023 C1.31132593 162.09774003 1.27331245 155.11483549 1.24291992 147.97265625 C1.24399526 146.49136267 1.24593765 145.01006952 1.24867249 143.52877808 C1.25348389 139.53704034 1.24591153 135.54541591 1.23571944 131.55369186 C1.2268751 127.35749205 1.22869763 123.16129513 1.2290802 118.96508789 C1.22814626 111.92104215 1.2194993 104.87703972 1.20581055 97.83300781 C1.19008798 89.71289385 1.18481264 81.59282725 1.1855461 73.47269917 C1.18622395 64.79322731 1.17926984 56.11377348 1.1700995 47.4343071 C1.16797805 44.9484017 1.16725967 42.46249924 1.16686058 39.97659302 C1.16584871 36.05637026 1.15968397 32.13618654 1.14969444 28.21597672 C1.14679835 26.78541427 1.14553813 25.35484733 1.14612198 23.92428207 C1.14815821 15.89087734 0.90845601 7.98542326 0 0 Z " fill="#D7FEFF" transform="translate(654,261)"/>
<path d="M0 0 C11.51239296 -0.7585032 11.51239296 -0.7585032 14.9765625 1.0078125 C16.3125 2.3125 16.3125 2.3125 18 5 C18 5.99 18 6.98 18 8 C16.02 7.67 14.04 7.34 12 7 C12 6.34 12 5.68 12 5 C10.68 5.33 9.36 5.66 8 6 C8.495 7.485 8.495 7.485 9 9 C9.08378628 11.2838517 9.10729915 13.570101 9.09765625 15.85546875 C9.0962413 16.51710526 9.09482635 17.17874176 9.09336853 17.86042786 C9.08777996 19.96949828 9.07522965 22.07846177 9.0625 24.1875 C9.05748352 25.61913909 9.05292087 27.05077985 9.04882812 28.48242188 C9.0378143 31.98831588 9.02055755 35.4941475 9 39 C9.8971875 39.185625 9.8971875 39.185625 10.8125 39.375 C13 40 13 40 16 42 C16 42.66 16 43.32 16 44 C2.8 44 -10.4 44 -24 44 C-24 43.34 -24 42.68 -24 42 C-22.35 42 -20.7 42 -19 42 C-18.67 41.34 -18.34 40.68 -18 40 C-17.34 40.33 -16.68 40.66 -16 41 C-14.55151418 41.08342159 -13.09929131 41.10732861 -11.6484375 41.09765625 C-10.37226563 41.09282227 -10.37226563 41.09282227 -9.0703125 41.08789062 C-7.73613281 41.07532227 -7.73613281 41.07532227 -6.375 41.0625 C-5.4778125 41.05798828 -4.580625 41.05347656 -3.65625 41.04882812 C-1.43743352 41.03702591 0.78125018 41.02056155 3 41 C5.94164342 34.72410191 5.4075593 28.30651887 5.4375 21.5 C5.47037109 20.18128906 5.50324219 18.86257813 5.53710938 17.50390625 C5.54419922 16.23417969 5.55128906 14.96445312 5.55859375 13.65625 C5.57877563 11.92084961 5.57877563 11.92084961 5.59936523 10.15039062 C4.82888008 6.10055744 3.01245449 4.69948383 0 2 C0 1.34 0 0.68 0 0 Z " fill="#47587C" transform="translate(361,547)"/>
<path d="M0 0 C1.98 0 3.96 0 6 0 C6.02314078 8.96193704 6.04092397 17.92386384 6.05181217 26.8858242 C6.05703719 31.04694039 6.06412795 35.20803618 6.07543945 39.36914062 C6.08628184 43.38265815 6.09227972 47.39615601 6.09487724 51.40968704 C6.09672905 52.94313491 6.100345 54.47658168 6.10573006 56.01002121 C6.1129584 58.15302632 6.11399018 60.29594956 6.11352539 62.43896484 C6.115746 63.66030121 6.11796661 64.88163757 6.12025452 66.13998413 C6 69 6 69 5 71 C4.7677354 73.71262116 4.58063765 76.40773126 4.4375 79.125 C4.39431641 79.87910156 4.35113281 80.63320313 4.30664062 81.41015625 C4.2005168 83.27321888 4.09974999 85.13658524 4 87 C3.67 87 3.34 87 3 87 C3 58.62 3 30.24 3 1 C2.01 0.67 1.02 0.34 0 0 Z " fill="#4D6A81" transform="translate(340,346)"/>
<path d="M0 0 C1.65 0 3.3 0 5 0 C5 0.66 5 1.32 5 2 C4.34 2 3.68 2 3 2 C2.67 34.01 2.34 66.02 2 99 C2.66 99.33 3.32 99.66 4 100 C2.68 100 1.36 100 0 100 C0 67 0 34 0 0 Z " fill="#1A3D66" transform="translate(294,324)"/>
<path d="M0 0 C0.99 0.33 1.98 0.66 3 1 C4.75825318 1.08836892 6.51972945 1.11762801 8.28019714 1.11352539 C9.37501404 1.1134549 10.46983093 1.1133844 11.5978241 1.11331177 C12.79941666 1.10814545 14.00100922 1.10297913 15.23901367 1.09765625 C17.18135313 1.09541463 19.12369258 1.09317329 21.06603205 1.09094238 C23.15514186 1.08756992 25.24423183 1.08171498 27.33333397 1.07516479 C31.69180955 1.06164123 36.05027492 1.05574744 40.4087677 1.05102539 C50.45418252 1.03897625 60.49957096 1.01696829 70.54496765 0.99479675 C79.7386376 0.97459403 88.9322984 0.95652096 98.12598592 0.94658184 C102.45325296 0.94161495 106.78047268 0.93177734 111.10772073 0.91815186 C113.15621707 0.91246821 115.20470166 0.90910628 117.25320435 0.9067688 C119.74365462 0.90391438 122.23410459 0.89748694 124.72453308 0.88668823 C130.58281196 0.88631581 136.20802493 1.10454737 142 2 C142 2.33 142 2.66 142 3 C84.58 3 27.16 3 -32 3 C-32 2.67 -32 2.34 -32 2 C-28.31261278 1.83077535 -24.62507482 1.66508199 -20.9375 1.5 C-19.89916016 1.45230469 -18.86082031 1.40460938 -17.79101562 1.35546875 C-9.11292857 0.96977599 -9.11292857 0.96977599 -4.87890625 1.03125 C-2.05653125 1.21054853 -2.05653125 1.21054853 0 0 Z " fill="#4D5B6C" transform="translate(277,465)"/>
<path d="M0 0 C0.66 0 1.32 0 2 0 C2.04241723 2.33294775 2.04092937 4.66702567 2 7 C1.67 7.33 1.34 7.66 1 8 C0.65048379 9.99723547 0.32173372 11.99810127 0 14 C-0.96796111 19.34728032 -2.10906763 23.34936966 -5 28 C-5.71401232 31.19395026 -5.71401232 31.19395026 -6 34 C-4.35 34 -2.7 34 -1 34 C-0.67 34.66 -0.34 35.32 0 36 C-5.61 36 -11.22 36 -17 36 C-16.67 35.01 -16.34 34.02 -16 33 C-14.515 32.505 -14.515 32.505 -13 32 C-11.46534764 29.17305854 -11.46534764 29.17305854 -10.1171875 25.6640625 C-9.85745148 25.02890717 -9.59771545 24.39375183 -9.33010864 23.73934937 C-8.50131182 21.7052852 -7.68816479 19.66535678 -6.875 17.625 C-6.32000284 16.25740933 -5.76402473 14.89021632 -5.20703125 13.5234375 C-2.45878276 6.8160001 -2.45878276 6.8160001 0 0 Z " fill="#4A5B76" transform="translate(330,555)"/>
<path d="M0 0 C0.66 0 1.32 0 2 0 C3.21004675 1.51331661 4.34123831 3.08982964 5.4375 4.6875 C8.62475933 9.19022818 11.96939927 13.44055147 15.5625 17.625 C16.49623873 18.71992846 17.42983505 19.81497839 18.36328125 20.91015625 C20.0057051 22.83532649 21.64908863 24.75966591 23.29296875 26.68359375 C23.93878906 27.46863281 24.58460938 28.25367187 25.25 29.0625 C25.81203125 29.73410156 26.3740625 30.40570313 26.953125 31.09765625 C28 33 28 33 27.671875 35.24609375 C27.33929688 36.11427734 27.33929688 36.11427734 27 37 C27 36.01 27 35.02 27 34 C26.443125 33.79375 25.88625 33.5875 25.3125 33.375 C20.65538625 30.60590534 17.49505373 25.72747023 15 21 C15 20.34 15 19.68 15 19 C14.34 19 13.68 19 13 19 C13.185625 19.598125 13.37125 20.19625 13.5625 20.8125 C14 23 14 23 13 26 C10.49520903 25.0263834 9.24997552 24.45525115 7.93505859 22.06054688 C7.54568115 20.90135742 7.54568115 20.90135742 7.1484375 19.71875 C6.85453125 18.87699219 6.560625 18.03523438 6.2578125 17.16796875 C5.96648437 16.28753906 5.67515625 15.40710938 5.375 14.5 C4.78353525 12.75874818 4.18739063 11.01907697 3.5859375 9.28125 C3.3286084 8.50845703 3.0712793 7.73566406 2.80615234 6.93945312 C2.06658969 4.81222743 2.06658969 4.81222743 0 3 C0 2.01 0 1.02 0 0 Z " fill="#4A4A55" transform="translate(418,72)"/>
<path d="M0 0 C4.62 0 9.24 0 14 0 C13.01331323 3.94674709 11.9120155 5.37533366 9.31884766 8.34082031 C7.12254651 11.10388262 5.69001848 14.19748852 4.1875 17.375 C3.87619141 18.01566406 3.56488281 18.65632812 3.24414062 19.31640625 C2.48859644 20.87398965 1.74320261 22.43649018 1 24 C0.67 24 0.34 24 0 24 C0 22.35 0 20.7 0 19 C-1.32 18.67 -2.64 18.34 -4 18 C-3.195625 17.360625 -2.39125 16.72125 -1.5625 16.0625 C1.65648131 12.21542478 2.34704974 8.9743796 2 4 C1.34 2.68 0.68 1.36 0 0 Z " fill="#5A6E89" transform="translate(297,547)"/>
<path d="M0 0 C2.97 0 5.94 0 9 0 C9 18.15 9 36.3 9 55 C5.7 55 2.4 55 -1 55 C-1.02463993 47.32788327 -1.04283123 39.65578935 -1.05493164 31.98364258 C-1.05997377 29.37133381 -1.06680725 26.75902789 -1.07543945 24.14672852 C-1.08751036 20.40119732 -1.09322935 16.65570328 -1.09765625 12.91015625 C-1.10281754 11.73413345 -1.10797882 10.55811066 -1.11329651 9.34645081 C-1.11340981 7.72488319 -1.11340981 7.72488319 -1.11352539 6.07055664 C-1.115746 5.11347305 -1.11796661 4.15638947 -1.12025452 3.17030334 C-1 1 -1 1 0 0 Z M0 1 C-0.05063836 7.92338952 -0.08570749 14.84673141 -0.10986328 21.77026367 C-0.11993155 24.12640162 -0.13358706 26.48252704 -0.15087891 28.83862305 C-0.17509076 32.22187386 -0.18647478 35.60495972 -0.1953125 38.98828125 C-0.20563507 40.04461258 -0.21595764 41.10094391 -0.22659302 42.18928528 C-0.22674408 43.17007553 -0.22689514 44.15086578 -0.22705078 45.16137695 C-0.231492 46.02519485 -0.23593323 46.88901276 -0.24050903 47.77900696 C-0.14183593 50.28763561 -0.14183593 50.28763561 2 53 C3.98 53.33 5.96 53.66 8 54 C8 36.51 8 19.02 8 1 C5.36 1 2.72 1 0 1 Z " fill="#627C8B" transform="translate(384,275)"/>
<path d="M0 0 C0.495 0.99 0.495 0.99 1 2 C-3.28740952 5.18754775 -6.9966764 5.41359796 -12.16015625 5.328125 C-12.94587509 5.32625183 -13.73159393 5.32437866 -14.54112244 5.32244873 C-16.20283252 5.31574136 -17.86452716 5.30185295 -19.52612305 5.28125 C-22.02994005 5.25040116 -24.53312197 5.24030101 -27.03710938 5.234375 C-35.73356133 5.19153054 -44.34434524 4.92758419 -53 4 C-53 3.67 -53 3.34 -53 3 C-47.23492685 2.02758988 -41.60182364 1.80492203 -35.76171875 1.71875 C-34.79974075 1.70034058 -33.83776276 1.68193115 -32.84663391 1.66296387 C-28.75292539 1.58463408 -24.65906866 1.51625738 -20.56518555 1.44775391 C-17.5681112 1.39614144 -14.57118225 1.33888967 -11.57421875 1.28125 C-10.64405441 1.26767456 -9.71389008 1.25409912 -8.75553894 1.2401123 C-7.89737076 1.22339478 -7.03920258 1.20667725 -6.1550293 1.18945312 C-5.39892868 1.17692505 -4.64282806 1.16439697 -3.86381531 1.15148926 C-1.90730437 1.10918734 -1.90730437 1.10918734 0 0 Z " fill="#30C6FE" transform="translate(172,182)"/>
<path d="M0 0 C0.33 0 0.66 0 1 0 C1.495 7.92 1.495 7.92 2 16 C4.64 16.66 7.28 17.32 10 18 C10 18.66 10 19.32 10 20 C-3.2 20 -16.4 20 -30 20 C-30 19.34 -30 18.68 -30 18 C-28.35 18 -26.7 18 -25 18 C-24.67 17.34 -24.34 16.68 -24 16 C-23.34 16.33 -22.68 16.66 -22 17 C-20.55151418 17.08342159 -19.09929131 17.10732861 -17.6484375 17.09765625 C-16.37226563 17.09282227 -16.37226563 17.09282227 -15.0703125 17.08789062 C-13.73613281 17.07532227 -13.73613281 17.07532227 -12.375 17.0625 C-11.4778125 17.05798828 -10.580625 17.05347656 -9.65625 17.04882812 C-7.43743352 17.03702591 -5.21874982 17.02056155 -3 17 C-1.25314692 13.17254549 -0.65113667 9.87557277 -0.375 5.6875 C-0.30023438 4.61886719 -0.22546875 3.55023437 -0.1484375 2.44921875 C-0.09945313 1.64097656 -0.05046875 0.83273437 0 0 Z " fill="#404F70" transform="translate(367,571)"/>
<path d="M0 0 C4.59152478 6.88728717 6.35845035 15.82024199 7 24 C6.34 24 5.68 24 5 24 C3.26336695 21.8254852 1.651236 19.65379305 0.0625 17.375 C-0.38029297 16.75753906 -0.82308594 16.14007813 -1.27929688 15.50390625 C-3.88913437 11.80890533 -6.08212052 8.11426291 -8 4 C-6.0625 4.3125 -6.0625 4.3125 -4 5 C-3.67 5.99 -3.34 6.98 -3 8 C-1.68 8.33 -0.36 8.66 1 9 C0.67 6.03 0.34 3.06 0 0 Z " fill="#27B0EC" transform="translate(461,189)"/>
<path d="M0 0 C0.99 0 1.98 0 3 0 C3.49527533 5.11784512 1.70215009 9.24816433 0 14 C3.3 14.33 6.6 14.66 10 15 C10 15.66 10 16.32 10 17 C5.03926578 18.32286246 0.08888488 18.08893197 -5 18 C-4.42934122 11.58008874 -2.32655091 5.98410537 0 0 Z " fill="#464F6A" transform="translate(229,162)"/>
<path d="M0 0 C0.33 0 0.66 0 1 0 C1.33 3.63 1.66 7.26 2 11 C3.32 11.33 4.64 11.66 6 12 C4.40909091 23.59090909 4.40909091 23.59090909 3 25 C3.33 25.66 3.66 26.32 4 27 C3.06553465 29.03144641 2.06775224 31.03533587 1 33 C0.67 33 0.34 33 0 33 C0 22.11 0 11.22 0 0 Z " fill="#4E5062" transform="translate(344,30)"/>
<path d="M0 0 C-3.77183023 3.46923937 -6.43239174 4.58956959 -11.5 5.1875 C-12.6034375 5.32542969 -13.706875 5.46335938 -14.84375 5.60546875 C-15.8853125 5.73566406 -16.926875 5.86585938 -18 6 C-18.84949219 6.19078125 -19.69898438 6.3815625 -20.57421875 6.578125 C-23.30347765 7.05277872 -25.56748124 6.89190225 -28.3125 6.5625 C-29.19550781 6.46066406 -30.07851562 6.35882813 -30.98828125 6.25390625 C-31.65214844 6.17011719 -32.31601563 6.08632812 -33 6 C-33.33 4.68 -33.66 3.36 -34 2 C-33.67 2.66 -33.34 3.32 -33 4 C-23.51202864 2.94023973 -14.23749604 1.55906491 -4.9140625 -0.51171875 C-2 -1 -2 -1 0 0 Z " fill="#3CD1F8" transform="translate(256,176)"/>
<path d="M0 0 C4.95094024 2.6458717 8.99261582 5.46165008 13.0625 9.3125 C13.5790918 9.79307861 14.09568359 10.27365723 14.62792969 10.76879883 C18.38245485 14.30480352 21.78111393 17.97639242 25 22 C24.67 22.66 24.34 23.32 24 24 C20.10269271 22.52171103 19.05730992 20.51457112 17 17 C15.68036291 15.98199424 14.34990354 14.97751635 13 14 C13 13.34 13 12.68 13 12 C12.34 12 11.68 12 11 12 C10.67 11.34 10.34 10.68 10 10 C9.4225 9.71125 8.845 9.4225 8.25 9.125 C4.72075574 7.36037787 1.56660592 5.56906256 0.1875 1.75 C0.125625 1.1725 0.06375 0.595 0 0 Z " fill="#23BFFE" transform="translate(612,201)"/>
<path d="M0 0 C0.86992584 0.16265854 1.73985168 0.32531708 2.63613892 0.49290466 C5.76715397 0.96489893 8.66050834 1.12067758 11.82177734 1.11352539 C12.94248627 1.11344986 14.06319519 1.11337433 15.21786499 1.11329651 C16.41182892 1.10813522 17.60579285 1.10297394 18.8359375 1.09765625 C20.68767075 1.09553383 20.68767075 1.09553383 22.57681274 1.09336853 C26.50956675 1.08778272 30.44226328 1.07523275 34.375 1.0625 C37.04557208 1.05691912 39.71614363 1.05292058 42.38671875 1.04882812 C48.92449869 1.03781792 55.46224524 1.02109385 62 1 C62 1.66 62 2.32 62 3 C62.66 3.33 63.32 3.66 64 4 C55.95049696 3.93885749 47.9013725 3.86180224 39.85223579 3.76428509 C36.11489125 3.71950948 32.37765753 3.68026977 28.64013672 3.65356445 C25.0348751 3.6276024 21.43003831 3.58725188 17.82503891 3.53681374 C16.4479487 3.52009662 15.07078493 3.50861257 13.69360733 3.50238609 C11.76843965 3.49279841 9.8434038 3.46307292 7.91845703 3.43237305 C6.27298386 3.41571846 6.27298386 3.41571846 4.5942688 3.39872742 C3.7381601 3.26714737 2.88205139 3.13556732 2 3 C1.34 2.01 0.68 1.02 0 0 Z " fill="#E5FDFE" transform="translate(508,181)"/>
<path d="M0 0 C1.65 0 3.3 0 5 0 C4.88138816 4.60831791 4.75711639 9.21643613 4.62768555 13.82446289 C4.58447661 15.39082736 4.54279209 16.95723467 4.50268555 18.52368164 C4.44464129 20.7802418 4.38104698 23.03658908 4.31640625 25.29296875 C4.29969376 25.98899704 4.28298126 26.68502533 4.26576233 27.40214539 C4.15591581 31.03872797 3.84278009 34.45792427 3 38 C2.67 38 2.34 38 2 38 C1.83083445 34.01674588 1.67046114 30.03323891 1.51782227 26.04931641 C1.43893458 24.03660132 1.35331849 22.02415356 1.26757812 20.01171875 C1.02357006 13.53737155 0.89897987 7.39407247 2 1 C1.34 0.67 0.68 0.34 0 0 Z " fill="#2E4964" transform="translate(342,276)"/>
<path d="M0 0 C0.99 0.33 1.98 0.66 3 1 C3.19406478 2.64507218 3.38007935 4.29109594 3.5625 5.9375 C3.66691406 6.85402344 3.77132813 7.77054688 3.87890625 8.71484375 C3.91886719 9.46894531 3.95882813 10.22304688 4 11 C3 12 3 12 1.15234375 12.09765625 C-0.8984375 12.06510417 -2.94921875 12.03255208 -5 12 C-4.54738642 10.56068883 -4.08767021 9.12361001 -3.625 7.6875 C-3.24214844 6.48673828 -3.24214844 6.48673828 -2.8515625 5.26171875 C-2 3 -2 3 0 0 Z " fill="#E3E5E9" transform="translate(333,562)"/>
<path d="M0 0 C0.33 0 0.66 0 1 0 C1.00808685 0.60943451 1.01617371 1.21886902 1.02450562 1.84677124 C1.11036845 8.17312984 1.20986327 14.49916846 1.31738281 20.82519531 C1.35573527 23.18809651 1.39057692 25.55105734 1.421875 27.9140625 C1.46738966 31.3049048 1.52540619 34.69533424 1.5859375 38.0859375 C1.59748871 39.14743011 1.60903992 40.20892273 1.62094116 41.30258179 C1.64081085 42.28344757 1.66068054 43.26431335 1.68115234 44.27490234 C1.69447601 45.14094086 1.70779968 46.00697937 1.7215271 46.89926147 C1.81220713 49.21757642 1.81220713 49.21757642 4 51 C5.31747324 51.69748583 6.64914193 52.36959957 8 53 C5.36 53 2.72 53 0 53 C0 35.51 0 18.02 0 0 Z " fill="#597789" transform="translate(383,276)"/>
<path d="M0 0 C5.94 0 11.88 0 18 0 C17.0625 10.17857143 17.0625 10.17857143 16 14 C13.19836974 9.7975546 13.85510288 6.99895065 14 2 C10.7 2 7.4 2 4 2 C4 2.66 4 3.32 4 4 C2.68 3.34 1.36 2.68 0 2 C0 1.34 0 0.68 0 0 Z " fill="#4D637E" transform="translate(273,547)"/>
<path d="M0 0 C-0.33 1.32 -0.66 2.64 -1 4 C-1.54527344 4.10957031 -2.09054687 4.21914062 -2.65234375 4.33203125 C-7.64704564 5.38219934 -12.36760913 6.73115613 -17.15234375 8.51171875 C-19 9 -19 9 -21 8 C-21 7.34 -21 6.68 -21 6 C-20.175 5.731875 -19.35 5.46375 -18.5 5.1875 C-15.94698422 4.32129822 -13.44901969 3.40970117 -10.9375 2.4375 C-7.33149066 1.07231864 -3.88948513 0 0 0 Z " fill="#0BDAFF" transform="translate(285,167)"/>
<path d="M0 0 C9.24 0 18.48 0 28 0 C24.66189518 1.66905241 21.53842155 2.8741386 18 4 C17.67 3.67 17.34 3.34 17 3 C15.45905702 2.95276803 13.91621658 2.96275005 12.375 3 C8.11784504 3.04893282 4.18915325 2.72854839 0 2 C0 1.34 0 0.68 0 0 Z " fill="#30495C" transform="translate(352,442)"/>
<path d="M0 0 C0.66 0 1.32 0 2 0 C3.40034072 1.71833476 4.72205227 3.50129099 6 5.3125 C6.70125 6.29863281 7.4025 7.28476563 8.125 8.30078125 C9.43560452 10.18750567 10.72570825 12.08856237 12 14 C11.01 14.33 10.02 14.66 9 15 C9.33 17.97 9.66 20.94 10 24 C7.25571593 19.8835739 5.85688606 15.34908281 4.2109375 10.71679688 C2.7156189 6.4943302 2.7156189 6.4943302 0 3 C0 2.01 0 1.02 0 0 Z " fill="#3A5375" transform="translate(418,72)"/>
<path d="M0 0 C0.66 0.33 1.32 0.66 2 1 C-1.61328125 5.6875 -1.61328125 5.6875 -3 7 C-3.99 7 -4.98 7 -6 7 C-6.24492188 7.57234375 -6.48984375 8.1446875 -6.7421875 8.734375 C-8.21110099 11.38024402 -9.95348244 13.14853139 -12.125 15.25 C-12.84945312 15.95640625 -13.57390625 16.6628125 -14.3203125 17.390625 C-14.87460938 17.92171875 -15.42890625 18.4528125 -16 19 C-16.99 18.67 -17.98 18.34 -19 18 C-13.31111095 11.10487086 -7.04967062 5.48163726 0 0 Z " fill="#12B3FD" transform="translate(81,201)"/>
<path d="M0 0 C0.66 0.33 1.32 0.66 2 1 C2.02515393 5.15852493 2.04306897 9.31700684 2.05493164 13.47558594 C2.05988898 14.88347141 2.06665686 16.29135194 2.07543945 17.69921875 C2.133057 27.18916799 1.82393888 36.53817205 1 46 C0.67 46 0.34 46 0 46 C0 32.8 0 19.6 0 6 C-0.66 5.67 -1.32 5.34 -2 5 C-1.34 3.35 -0.68 1.7 0 0 Z " fill="#2DC4F6" transform="translate(341,23)"/>
<path d="M0 0 C0.33 0 0.66 0 1 0 C1.33 5.28 1.66 10.56 2 16 C4.64 16.66 7.28 17.32 10 18 C10 18.66 10 19.32 10 20 C6.04 20 2.08 20 -2 20 C-1.34 13.4 -0.68 6.8 0 0 Z " fill="#3D4D6D" transform="translate(367,571)"/>
<path d="M0 0 C6.93 0 13.86 0 21 0 C20.01 1.32 19.02 2.64 18 4 C16.989375 3.814375 15.97875 3.62875 14.9375 3.4375 C11.02085773 3.00231753 7.85755337 3.29146979 4 4 C4 3.34 4 2.68 4 2 C2.68 1.34 1.36 0.68 0 0 Z " fill="#31495C" transform="translate(399,442)"/>
<path d="M0 0 C2.64752004 2.57784846 4.94432065 4.91648098 7 8 C7 8.99 7 9.98 7 11 C5.1875 11.625 5.1875 11.625 3 12 C0 10 0 10 -0.546875 7.87109375 C-0.61390625 7.06800781 -0.6809375 6.26492187 -0.75 5.4375 C-0.86601562 4.22900391 -0.86601562 4.22900391 -0.984375 2.99609375 C-0.98953125 2.33738281 -0.9946875 1.67867187 -1 1 C-0.67 0.67 -0.34 0.34 0 0 Z " fill="#3D3E50" transform="translate(345,26)"/>
<path d="M0 0 C0.66 0 1.32 0 2 0 C3.2890625 1.53125 3.2890625 1.53125 4.625 3.5 C5.07101562 4.1496875 5.51703125 4.799375 5.9765625 5.46875 C6.31429688 5.9740625 6.65203125 6.479375 7 7 C4.66666667 9.33333333 2.33333333 11.66666667 0 14 C-1.24665038 10.39856557 -0.69288535 7.69538855 0 4 C0 2.68 0 1.36 0 0 Z " fill="#344257" transform="translate(261,80)"/>
<path d="M0 0 C0.33 0 0.66 0 1 0 C1 10.56 1 21.12 1 32 C-0.65 32 -2.3 32 -4 32 C-2.68 31.67 -1.36 31.34 0 31 C-0.05988141 28.87420987 -0.14862744 26.74921587 -0.25 24.625 C-0.29640625 23.44164062 -0.3428125 22.25828125 -0.390625 21.0390625 C-0.65648799 17.88708247 -0.65648799 17.88708247 -3.046875 16.5859375 C-3.69140625 16.39257812 -4.3359375 16.19921875 -5 16 C-4.01 16 -3.02 16 -2 16 C-1.34 10.72 -0.68 5.44 0 0 Z " fill="#636F94" transform="translate(401,560)"/>
<path d="M0 0 C1.305239 3.91571701 0.32239848 5.03892997 -1.4375 8.6875 C-1.91058594 9.68136719 -2.38367188 10.67523437 -2.87109375 11.69921875 C-3.24363281 12.45847656 -3.61617188 13.21773437 -4 14 C-4.33 14 -4.66 14 -5 14 C-5 12.35 -5 10.7 -5 9 C-6.32 8.67 -7.64 8.34 -9 8 C-6.14723863 5.06799526 -3.34920216 2.35684596 0 0 Z " fill="#586783" transform="translate(302,557)"/>
<path d="M0 0 C2.17655122 2.17655122 2.69399718 3.52381875 3.69140625 6.39453125 C4.14870117 7.70454102 4.14870117 7.70454102 4.61523438 9.04101562 C4.92783203 9.95560547 5.24042969 10.87019531 5.5625 11.8125 C5.87896484 12.71548828 6.19542969 13.61847656 6.52148438 14.54882812 C7.95441548 18.68942098 9.21004049 22.68228924 10 27 C6.52136408 24.68090939 6.43564709 23.94671811 5.4375 20.0625 C4.58221897 16.78150667 3.91492264 14.87238397 2 12 C1.3671875 10.09765625 1.3671875 10.09765625 0.875 8.0625 C0.70742188 7.39347656 0.53984375 6.72445312 0.3671875 6.03515625 C0 4 0 4 0 0 Z " fill="#3AB6E3" transform="translate(431,107)"/>
<path d="M0 0 C0.99 0 1.98 0 3 0 C3.95261487 4.76307437 4.08333357 9.1666528 4 14 C5.32 14.33 6.64 14.66 8 15 C7.01 15.99 6.02 16.98 5 18 C2.75191746 14.62787619 1.94839557 11.7125039 0.875 7.8125 C0.69324219 7.15830078 0.51148438 6.50410156 0.32421875 5.83007812 C-0.12199044 4.22137657 -0.56164215 2.61085869 -1 1 C-0.67 0.67 -0.34 0.34 0 0 Z " fill="#485A7D" transform="translate(452,160)"/>
<path d="M0 0 C2.475 0.99 2.475 0.99 5 2 C6.125 9.625 6.125 9.625 5 13 C4.01 12.67 3.02 12.34 2 12 C1.34 8.04 0.68 4.08 0 0 Z " fill="#4A3F4E" transform="translate(426,85)"/>
<path d="M0 0 C0 0.33 0 0.66 0 1 C-6.93 1 -13.86 1 -21 1 C-21 0.34 -21 -0.32 -21 -1 C-18.62556577 -1.22354724 -16.25174905 -1.429163 -13.875 -1.625 C-13.20984375 -1.68945312 -12.5446875 -1.75390625 -11.859375 -1.8203125 C-7.41244943 -2.16909098 -4.12269819 -1.68247185 0 0 Z " fill="#354766" transform="translate(303,590)"/>
<path d="M0 0 C0.33 0.99 0.66 1.98 1 3 C0.3503125 3.5878125 0.3503125 3.5878125 -0.3125 4.1875 C-2.1048722 5.97755989 -2.1048722 5.97755989 -3.375 8.375 C-5.23227293 11.37521012 -7.44442223 13.58256157 -10 16 C-10.99 15.67 -11.98 15.34 -13 15 C-12.22914063 14.16855469 -11.45828125 13.33710938 -10.6640625 12.48046875 C-9.6509335 11.38291233 -8.63791863 10.28525056 -7.625 9.1875 C-7.11710938 8.64029297 -6.60921875 8.09308594 -6.0859375 7.52929688 C-3.84783697 5.09977985 -1.83620888 2.75431332 0 0 Z " fill="#18B6FE" transform="translate(229,118)"/>
<path d="M0 0 C4.62 0 9.24 0 14 0 C14 0.66 14 1.32 14 2 C9.03926578 3.32286246 4.08888488 3.08893197 -1 3 C-0.67 2.01 -0.34 1.02 0 0 Z " fill="#4F4F5C" transform="translate(225,177)"/>
<path d="M0 0 C0.33 0.66 0.66 1.32 1 2 C0.22265625 4.2421875 0.22265625 4.2421875 -0.9375 6.875 C-2.47966742 10.37754973 -3 12.06256737 -3 16 C-4.98 16.99 -4.98 16.99 -7 18 C-5.99843913 11.45031907 -4.89695021 4.89695021 0 0 Z " fill="#49546E" transform="translate(243,132)"/>
<path d="M0 0 C0.33 0.66 0.66 1.32 1 2 C-4.61 2 -10.22 2 -16 2 C-16 1.34 -16 0.68 -16 0 C-10.66632103 -1.26323976 -5.35003168 -1.15866976 0 0 Z " fill="#38475D" transform="translate(329,589)"/>
<path d="M0 0 C1.9375 0.5 1.9375 0.5 4 2 C4.68790422 4.69658452 4.81946464 7.2017019 5 10 C4.01 10.66 3.02 11.32 2 12 C1.01 8.37 0.02 4.74 -1 1 C-0.67 0.67 -0.34 0.34 0 0 Z " fill="#495372" transform="translate(445,140)"/>
<path d="M0 0 C0.66 0.33 1.32 0.66 2 1 C0.46356148 4.68069887 -1.78150945 6.98775204 -4.625 9.75 C-5.85089844 10.94882813 -5.85089844 10.94882813 -7.1015625 12.171875 C-7.72804687 12.77515625 -8.35453125 13.3784375 -9 14 C-9.66 13.67 -10.32 13.34 -11 13 C-7.37 8.71 -3.74 4.42 0 0 Z " fill="#14B8FE" transform="translate(248,96)"/>
<path d="M0 0 C1.14192783 1.14192783 2.28322385 2.28449238 3.421875 3.4296875 C4.56801177 4.57015032 5.72586815 5.69887306 6.890625 6.8203125 C7.52484375 7.43648437 8.1590625 8.05265625 8.8125 8.6875 C9.41707031 9.26886719 10.02164063 9.85023438 10.64453125 10.44921875 C12 12 12 12 12 14 C10.68 13.67 9.36 13.34 8 13 C8 12.01 8 11.02 8 10 C7.4225 9.979375 6.845 9.95875 6.25 9.9375 C2.57066705 8.40444461 1.72716653 5.51601757 0 2 C0 1.34 0 0.68 0 0 Z " fill="#266AA1" transform="translate(522,200)"/>
<path d="M0 0 C2 2 2 2 3 5 C3.99 5.33 4.98 5.66 6 6 C5.34 7.98 4.68 9.96 4 12 C-0.90405117 7.8315565 -0.90405117 7.8315565 -1.375 3.75 C-1 1 -1 1 0 0 Z " fill="#4A536F" transform="translate(450,151)"/>
<path d="M0 0 C0 4.29 0 8.58 0 13 C-0.99 12.34 -1.98 11.68 -3 11 C-3.29296875 8.6171875 -3.29296875 8.6171875 -3.1875 5.875 C-3.16042969 4.96492188 -3.13335937 4.05484375 -3.10546875 3.1171875 C-3.07066406 2.41851562 -3.03585937 1.71984375 -3 1 C-1 0 -1 0 0 0 Z " fill="#4F7282" transform="translate(340,331)"/>
<path d="M0 0 C0 0.33 0 0.66 0 1 C-6.14778871 2.6277833 -11.64012196 3.20190089 -18 3 C-18 2.34 -18 1.68 -18 1 C-12.03325384 -0.32594359 -6.07416385 -0.0884587 0 0 Z " fill="#374F60" transform="translate(137,225)"/>
<path d="M0 0 C0.99 0.495 0.99 0.495 2 1 C2.625 4.0625 2.625 4.0625 3 7 C4.32 7 5.64 7 7 7 C7.33 5.68 7.66 4.36 8 3 C8 5.31 8 7.62 8 10 C5.6568787 9.74438677 3.32156597 9.40729228 1 9 C-0.4783226 6.04335481 -0.06032783 3.25770263 0 0 Z " fill="#49647B" transform="translate(338,320)"/>
<path d="M0 0 C0.66 0.33 1.32 0.66 2 1 C2 3.97 2 6.94 2 10 C0.35 10.33 -1.3 10.66 -3 11 C-2.69217504 9.35328588 -2.37860766 7.70764424 -2.0625 6.0625 C-1.88847656 5.14597656 -1.71445312 4.22945312 -1.53515625 3.28515625 C-1 1 -1 1 0 0 Z " fill="#3B4B68" transform="translate(327,566)"/>
<path d="M0 0 C0.33 0 0.66 0 1 0 C1.31461385 7.09629025 1.44572039 12.68284595 -2 19 C-3.56454159 14.97985339 -2.46223974 11.30074319 -1.5625 7.25 C-1.34110352 6.20392578 -1.34110352 6.20392578 -1.11523438 5.13671875 C-0.75131967 3.4227979 -0.37670932 1.71115419 0 0 Z " fill="#D2FCFE" transform="translate(655,424)"/>
<path d="M0 0 C0.99 0 1.98 0 3 0 C3 3.63 3 7.26 3 11 C1 10 1 10 -0.1875 7.75 C-1.08937081 4.69751418 -0.86361585 3.02265546 0 0 Z " fill="#4F6473" transform="translate(338,262)"/>
<path d="M0 0 C2.97 0 5.94 0 9 0 C9.33 0.99 9.66 1.98 10 3 C6.37 3 2.74 3 -1 3 C-0.67 2.01 -0.34 1.02 0 0 Z " fill="#4A5874" transform="translate(329,574)"/>
<path d="M0 0 C1.65 0 3.3 0 5 0 C5 0.66 5 1.32 5 2 C4.34 2 3.68 2 3 2 C2.67 4.97 2.34 7.94 2 11 C-0.67927341 6.98108988 -0.15601248 4.75838077 0 0 Z " fill="#1A3C55" transform="translate(294,324)"/>
<path d="M0 0 C0.99 0.99 1.98 1.98 3 3 C2.67 3.66 2.34 4.32 2 5 C1.84932786 6.4465242 1.75138964 7.8987934 1.68359375 9.3515625 C1.64169922 10.20234375 1.59980469 11.053125 1.55664062 11.9296875 C1.51732422 12.81914063 1.47800781 13.70859375 1.4375 14.625 C1.39431641 15.5221875 1.35113281 16.419375 1.30664062 17.34375 C1.20043139 19.56234283 1.09838806 21.7810488 1 24 C0.67 24 0.34 24 0 24 C-0.1958691 20.18788097 -0.38029565 16.37529466 -0.5625 12.5625 C-0.61857422 11.47388672 -0.67464844 10.38527344 -0.73242188 9.26367188 C-0.78076172 8.22919922 -0.82910156 7.19472656 -0.87890625 6.12890625 C-0.9260376 5.17056885 -0.97316895 4.21223145 -1.02172852 3.22485352 C-1 1 -1 1 0 0 Z " fill="#1F608B" transform="translate(343,22)"/>
<path d="M0 0 C4.29 0 8.58 0 13 0 C13 0.33 13 0.66 13 1 C10.69 1 8.38 1 6 1 C5.67 2.65 5.34 4.3 5 6 C3.2925002 4.71937515 1.62626404 3.38232443 0 2 C0 1.34 0 0.68 0 0 Z " fill="#5F718D" transform="translate(361,547)"/>
<path d="M0 0 C3.25195722 4.87793583 3.11325659 9.22391379 3 15 C2.34 15 1.68 15 1 15 C0.67 13.35 0.34 11.7 0 10 C-0.99 9.67 -1.98 9.34 -3 9 C-1.68 9 -0.36 9 1 9 C0.67 6.03 0.34 3.06 0 0 Z " fill="#17B5ED" transform="translate(461,189)"/>
<path d="M0 0 C5.98993047 -0.3152595 9.63560356 0.31780178 15 3 C11.34142468 4.31534494 8.91973519 3.65468309 5.25 2.5625 C4.26515625 2.27503906 3.2803125 1.98757813 2.265625 1.69140625 C1.51796875 1.46324219 0.7703125 1.23507812 0 1 C0 0.67 0 0.34 0 0 Z " fill="#47D0FE" transform="translate(104,506)"/>
<path d="M0 0 C0.33 0 0.66 0 1 0 C1 6.6 1 13.2 1 20 C0.01 20 -0.98 20 -2 20 C-1.34 13.4 -0.68 6.8 0 0 Z " fill="#384566" transform="translate(367,571)"/>
<path d="M0 0 C0.33 0 0.66 0 1 0 C1 1.65 1 3.3 1 5 C-2.30994713 6.65497356 -5.99123 6.10084335 -9.625 6.0625 C-10.42679687 6.05798828 -11.22859375 6.05347656 -12.0546875 6.04882812 C-14.03649006 6.03703168 -16.01825433 6.01909605 -18 6 C-18.33 5.34 -18.66 4.68 -19 4 C-13.06 3.67 -7.12 3.34 -1 3 C-0.67 2.01 -0.34 1.02 0 0 Z " fill="#2E475F" transform="translate(335,273)"/>
<path d="M0 0 C3.51098025 4.01254885 5.76537994 8.20983041 8 13 C6 13 6 13 4.375 11.75 C3 10 3 10 3 6 C2.01 6 1.02 6 0 6 C0 4.02 0 2.04 0 0 Z " fill="#26598B" transform="translate(442,176)"/>
<path d="M0 0 C-2.68092691 2.68092691 -4.39167363 2.38670257 -8.125 2.625 C-9.22070312 2.69976562 -10.31640625 2.77453125 -11.4453125 2.8515625 C-12.28835937 2.90054688 -13.13140625 2.94953125 -14 3 C-14 2.34 -14 1.68 -14 1 C-8.83430559 -0.79217969 -5.48946087 -1.12029814 0 0 Z " fill="#4E5D74" transform="translate(256,174)"/>
<path d="M0 0 C3.55700273 2.66775205 6.521673 5.2825095 9 9 C8.67 9.99 8.34 10.98 8 12 C6.29115995 10.37660195 4.62553283 8.70680947 3 7 C3 6.34 3 5.68 3 5 C2.34 5 1.68 5 1 5 C0.67 3.35 0.34 1.7 0 0 Z " fill="#434A58" transform="translate(270,90)"/>
<path d="M0 0 C0.928125 0.0825 1.85625 0.165 2.8125 0.25 C2.4825 1.24 2.1525 2.23 1.8125 3.25 C-0.1675 3.25 -2.1475 3.25 -4.1875 3.25 C-4.8475 4.57 -5.5075 5.89 -6.1875 7.25 C-6.1875 4.25 -6.1875 4.25 -5.0625 2.0625 C-3.1875 0.25 -3.1875 0.25 0 0 Z " fill="#354E6F" transform="translate(308.1875,547.75)"/>
<path d="M0 0 C1.21405922 3.49551279 0.777272 5.69093297 -0.3125 9.1875 C-0.57675781 10.06792969 -0.84101562 10.94835937 -1.11328125 11.85546875 C-2 14 -2 14 -4 15 C-4.50610724 8.92671312 -3.04157942 5.22771463 0 0 Z " fill="#2D5891" transform="translate(613,424)"/>
<path d="M0 0 C2 2 2 2 2 6 C3.95216435 7.95216435 5.53199953 8.84826645 8 10 C5.36 10 2.72 10 0 10 C0 6.7 0 3.4 0 0 Z " fill="#486A82" transform="translate(383,319)"/>
<path d="M0 0 C-0.33 0.99 -0.66 1.98 -1 3 C-5.40914783 4.10228696 -9.48382401 4.07654536 -14 4 C-11.17991324 2.11994216 -9.65676336 1.54324907 -6.4375 0.875 C-5.65246094 0.70742187 -4.86742187 0.53984375 -4.05859375 0.3671875 C-2 0 -2 0 0 0 Z " fill="#31D4F7" transform="translate(285,167)"/>
<path d="M0 0 C0.66 0.66 1.32 1.32 2 2 C1.79107816 5.27310883 1.56305786 7.32433057 -0.5625 9.875 C-1.036875 10.24625 -1.51125 10.6175 -2 11 C-1.67 9.35 -1.34 7.7 -1 6 C-1.66 6 -2.32 6 -3 6 C-2 4 -1 2 0 0 Z " fill="#1795D2" transform="translate(260,82)"/>
<path d="M0 0 C-1 1 -1 1 -3.5625 1.0625 C-4.7690625 1.0315625 -4.7690625 1.0315625 -6 1 C-6 1.66 -6 2.32 -6 3 C-8.64 3 -11.28 3 -14 3 C-4.91666667 -1.89102564 -4.91666667 -1.89102564 0 0 Z " fill="#35C3E9" transform="translate(270,172)"/>
<path d="M0 0 C0.33 0.99 0.66 1.98 1 3 C-0.43359375 5.26171875 -0.43359375 5.26171875 -2.4375 7.6875 C-3.09621094 8.49574219 -3.75492187 9.30398437 -4.43359375 10.13671875 C-4.95050781 10.75160156 -5.46742188 11.36648437 -6 12 C-6.66 11.67 -7.32 11.34 -8 11 C-5.36 7.37 -2.72 3.74 0 0 Z " fill="#1CB6FD" transform="translate(325,44)"/>
<path d="M0 0 C0.66 0.33 1.32 0.66 2 1 C1.67 2.32 1.34 3.64 1 5 C-1.64 5 -4.28 5 -7 5 C-4.63707344 2.47411298 -3.33537489 1.11179163 0 0 Z " fill="#4A607A" transform="translate(321,584)"/>
<path d="M0 0 C3.00617269 3.00617269 2.59585316 5.82381598 3 10 C2.01 10.66 1.02 11.32 0 12 C0 8.04 0 4.08 0 0 Z " fill="#2D556A" transform="translate(335,334)"/>
<path d="M0 0 C0.33 0 0.66 0 1 0 C1.3125 3.1875 1.3125 3.1875 1 7 C-1.5 9.9375 -1.5 9.9375 -4 12 C-3.52309796 10.37433394 -3.04340334 8.74948689 -2.5625 7.125 C-2.29566406 6.22007812 -2.02882812 5.31515625 -1.75390625 4.3828125 C-1 2 -1 2 0 0 Z " fill="#3B5D85" transform="translate(245,122)"/>
<path d="M0 0 C2.64 0 5.28 0 8 0 C7.67 0.99 7.34 1.98 7 3 C6.34 2.67 5.68 2.34 5 2 C5 2.66 5 3.32 5 4 C2.525 3.01 2.525 3.01 0 2 C0 1.34 0 0.68 0 0 Z " fill="#2E4958" transform="translate(384,276)"/>
<path d="M0 0 C0.33 0 0.66 0 1 0 C1.625 3.375 1.625 3.375 2 7 C1.34 7.66 0.68 8.32 0 9 C-0.69748583 10.31747324 -1.36959957 11.64914193 -2 13 C-2 10.36 -2 7.72 -2 5 C-1.34 5 -0.68 5 0 5 C0 3.35 0 1.7 0 0 Z " fill="#30658D" transform="translate(81,260)"/>
<path d="M0 0 C2.99324263 1.0975223 3.84610901 1.67682892 5.25 4.625 C5.4975 5.40875 5.745 6.1925 6 7 C3.5625 6.3125 3.5625 6.3125 1 5 C0.1875 2.375 0.1875 2.375 0 0 Z " fill="#33C7FF" transform="translate(631,218)"/>
<path d="M0 0 C0.66 0 1.32 0 2 0 C2.85743651 4.39436211 3.08948558 8.52572076 3 13 C2.34 13 1.68 13 1 13 C0.67 8.71 0.34 4.42 0 0 Z " fill="#366E94" transform="translate(466,202)"/>
<path d="M0 0 C0.598125 0.763125 1.19625 1.52625 1.8125 2.3125 C3.46959332 4.3483575 5.10297674 6.1978279 7 8 C6.67 8.66 6.34 9.32 6 10 C5.01 9.67 4.02 9.34 3 9 C3 8.34 3 7.68 3 7 C2.34 6.67 1.68 6.34 1 6 C1.33 5.34 1.66 4.68 2 4 C1.34 4 0.68 4 0 4 C0 2.68 0 1.36 0 0 Z " fill="#29649B" transform="translate(511,186)"/>
<path d="M0 0 C2 4 2 4 1.3125 6.6875 C0 9 0 9 -3 10 C-2.01 6.7 -1.02 3.4 0 0 Z " fill="#395C80" transform="translate(249,112)"/>
<path d="M0 0 C0.33 1.32 0.66 2.64 1 4 C-0.9375 6.25 -0.9375 6.25 -3 8 C-3.99 7.67 -4.98 7.34 -6 7 C-4.02 4.69 -2.04 2.38 0 0 Z " fill="#10BCFD" transform="translate(338,28)"/>
<path d="M0 0 C0.598125 0.309375 1.19625 0.61875 1.8125 0.9375 C4.08956772 2.10209704 4.08956772 2.10209704 7 3 C7 3.66 7 4.32 7 5 C5.02 5 3.04 5 1 5 C0.67 3.35 0.34 1.7 0 0 Z " fill="#44567B" transform="translate(394,586)"/>
<path d="M0 0 C0.33 0.99 0.66 1.98 1 3 C-0.4375 5.6875 -0.4375 5.6875 -2 8 C-2.66 7.34 -3.32 6.68 -4 6 C-3.8125 4 -3.8125 4 -3 2 C-2.01 1.34 -1.02 0.68 0 0 Z " fill="#3E4D65" transform="translate(302,557)"/>
<path d="M0 0 C1.65 0 3.3 0 5 0 C3.02 2.97 3.02 2.97 1 6 C0.01 5.67 -0.98 5.34 -2 5 C-1.34 3.35 -0.68 1.7 0 0 Z " fill="#445E84" transform="translate(304,551)"/>
<path d="M0 0 C0.99 0.33 1.98 0.66 3 1 C3 3.97 3 6.94 3 10 C0 7 0 7 -0.1875 3.3125 C-0.125625 2.219375 -0.06375 1.12625 0 0 Z " fill="#465B7C" transform="translate(287,551)"/>
<path d="M0 0 C0 0.33 0 0.66 0 1 C-5.24385089 2.7479503 -9.47322267 3.19392201 -15 3 C-15 2.67 -15 2.34 -15 2 C-9.75614911 0.2520497 -5.52677733 -0.19392201 0 0 Z " fill="#296F9D" transform="translate(578,468)"/>
<path d="M0 0 C5.57142857 5.14285714 5.57142857 5.14285714 6 9 C5.01 9 4.02 9 3 9 C2.71125 8.195625 2.4225 7.39125 2.125 6.5625 C1.26737432 3.8673532 1.26737432 3.8673532 -1 3 C-0.67 2.01 -0.34 1.02 0 0 Z " fill="#305F8C" transform="translate(456,199)"/>
<path d="M0 0 C0.99 0.99 1.98 1.98 3 3 C1.6875 4.5 1.6875 4.5 0 6 C-0.99 6 -1.98 6 -3 6 C-2.67 4.68 -2.34 3.36 -2 2 C-1.34 2 -0.68 2 0 2 C0 1.34 0 0.68 0 0 Z " fill="#475A76" transform="translate(281,190)"/>
<path d="M0 0 C2.125 0.9375 2.125 0.9375 4 2 C4 2.66 4 3.32 4 4 C1.36 4.33 -1.28 4.66 -4 5 C-3.01 4.34 -2.02 3.68 -1 3 C-1.33 2.34 -1.66 1.68 -2 1 C-1.34 0.67 -0.68 0.34 0 0 Z " fill="#495771" transform="translate(270,166)"/>
<path d="M0 0 C1.20628008 2.33214148 2.1654738 4.49642139 3 7 C2.34 7.66 1.68 8.32 1 9 C-1 7 -1 7 -2 5 C-1.0625 2.375 -1.0625 2.375 0 0 Z " fill="#5B667B" transform="translate(328,560)"/>
<path d="M0 0 C1.32 1.32 2.64 2.64 4 4 C3.67 4.66 3.34 5.32 3 6 C1.35 6 -0.3 6 -2 6 C-1.49396008 3.83125748 -1.00016187 2.00032373 0 0 Z " fill="#28BBEA" transform="translate(417,73)"/>
<path d="M0 0 C0.66 0 1.32 0 2 0 C5 3.46153846 5 3.46153846 5 6 C3.68 6 2.36 6 1 6 C0.67 4.02 0.34 2.04 0 0 Z " fill="#2B6DA7" transform="translate(534,214)"/>
<path d="M0 0 C2 1.8125 2 1.8125 4 4 C4 4.99 4 5.98 4 7 C2.68 6.67 1.36 6.34 0 6 C0 4.02 0 2.04 0 0 Z " fill="#455269" transform="translate(369,62)"/>
<path d="M0 0 C1.9375 0.75 1.9375 0.75 4 2 C4.75 4.125 4.75 4.125 5 6 C4.01 6 3.02 6 2 6 C1.34 4.02 0.68 2.04 0 0 Z " fill="#475E7C" transform="translate(389,569)"/>
<path d="M0 0 C0.33 1.32 0.66 2.64 1 4 C1.33 4.66 1.66 5.32 2 6 C1.34 6 0.68 6 0 6 C0 6.66 0 7.32 0 8 C-0.99 8.33 -1.98 8.66 -3 9 C-2.01 6.03 -1.02 3.06 0 0 Z " fill="#5F6E87" transform="translate(325,568)"/>
<path d="M0 0 C0.99 0.33 1.98 0.66 3 1 C2.67 2.65 2.34 4.3 2 6 C1.01 5.67 0.02 5.34 -1 5 C-0.67 3.35 -0.34 1.7 0 0 Z " fill="#304B71" transform="translate(334,548)"/>
<path d="M0 0 C3.26460973 1.80412643 4.88929795 2.83394693 7 6 C5.68 6 4.36 6 3 6 C0 2.78571429 0 2.78571429 0 0 Z " fill="#34C1FD" transform="translate(620,207)"/>
<path d="M0 0 C1.98 0.99 3.96 1.98 6 3 C5.67 3.66 5.34 4.32 5 5 C2.525 4.01 2.525 4.01 0 3 C0 2.01 0 1.02 0 0 Z " fill="#22BFFD" transform="translate(604,196)"/>
<path d="M0 0 C-2.39509338 2.89932357 -4.31245243 3.50168276 -8 4 C-7 1 -7 1 -5.125 -0.25 C-3 -1 -3 -1 0 0 Z " fill="#E2FAFF" transform="translate(100,190)"/>
<path d="M0 0 C1.9375 0.6875 1.9375 0.6875 4 2 C4.75 4.625 4.75 4.625 5 7 C4.34 6.67 3.68 6.34 3 6 C3 5.34 3 4.68 3 4 C1.68 3.34 0.36 2.68 -1 2 C-0.67 1.34 -0.34 0.68 0 0 Z " fill="#324773" transform="translate(506,181)"/>
<path d="M0 0 C0.33 0.66 0.66 1.32 1 2 C-0.65 3.98 -2.3 5.96 -4 8 C-4.66 7.67 -5.32 7.34 -6 7 C-4.02 4.69 -2.04 2.38 0 0 Z " fill="#26B6FC" transform="translate(179,174)"/>
</svg>
